<?xml version="1.0" encoding="UTF-8"?>
<svg width="512" height="512" version="1.1" viewBox="0 0 512 512" xmlns="http://www.w3.org/2000/svg">
 <path d="m236.7 19.233-51.147 164-138.76-0.65634 126.16 85.601-95.919 192.57 159.43-148.15 158.17 146.63-88.691-194.93 126.17-80.706-136.83 0.92934z" fill="#990" stroke="#e6e600" stroke-width="10"/>
 <path d="m312.26 266.17 86.908 191-7.9358 5.7253 51.532 48.203-92.359-209.72 134.13-80.99-35.193-41.889z" fill="#6b6b00"/>
 <path d="m236.49 319.35 40.069 37.19-157.35 151.67-38.783-43.981z" fill="#6b6b00"/>
 <path d="m30.22 177.68 0.28283 8.8636 130.62 94.282 5.5573-10.868z" fill="#9c9c00"/>
 <path d="m298.68 179.4-62.263-175.7 45.308 42.857 36.628 132.86z" fill="#adad00"/>
</svg>
