<?xml version="1.0" encoding="UTF-8"?>
<svg width="512" height="512" version="1.1" viewBox="0 0 512 512" xmlns="http://www.w3.org/2000/svg" xmlns:xlink="http://www.w3.org/1999/xlink">
 <defs>
  <linearGradient id="linearGradient1886">
   <stop stop-color="#afad14" offset="0"/>
   <stop stop-color="#eab51d" stop-opacity=".35686" offset="1"/>
  </linearGradient>
  <linearGradient id="linearGradient1850">
   <stop stop-color="#efc839" offset="0"/>
   <stop stop-color="#d7d82b" stop-opacity=".62745" offset="1"/>
  </linearGradient>
  <linearGradient id="linearGradient1586" x1="284.75" x2="110.19" y1="429.8" y2="152.85" gradientTransform="translate(100.22 -191.34)" gradientUnits="userSpaceOnUse" xlink:href="#linearGradient1886"/>
  <linearGradient id="linearGradient1649" x1="321.3" x2="149.3" y1="502.53" y2="247.86" gradientTransform="translate(72.409 -408.36)" gradientUnits="userSpaceOnUse" xlink:href="#linearGradient1886"/>
  <radialGradient id="radialGradient1715" cx="42.228" cy="359.57" r="255" gradientTransform="matrix(-.098598 .55496 -.97614 -.17343 397.38 398.49)" gradientUnits="userSpaceOnUse">
   <stop stop-color="#080209" offset="0"/>
   <stop stop-color="#65641c" stop-opacity="0" offset="1"/>
  </radialGradient>
  <linearGradient id="linearGradient4457" x1="408.72" x2="216.31" y1="433.54" y2="315.34" gradientTransform="translate(-500.91 10.623)" gradientUnits="userSpaceOnUse" xlink:href="#linearGradient1886"/>
  <linearGradient id="linearGradient5374" x1="182.24" x2="393.23" y1="16.332" y2="790.65" gradientTransform="translate(-149.21 89.93)" gradientUnits="userSpaceOnUse" xlink:href="#linearGradient1886"/>
  <linearGradient id="linearGradient12623" x1="408.72" x2="216.31" y1="433.54" y2="315.34" gradientTransform="translate(-188.72 99.742)" gradientUnits="userSpaceOnUse" xlink:href="#linearGradient1886"/>
  <radialGradient id="radialGradient1715-5" cx="42.228" cy="359.57" r="255" gradientTransform="matrix(-.085655 .41202 -.848 -.12876 692.15 33.877)" gradientUnits="userSpaceOnUse">
   <stop stop-color="#080209" offset="0"/>
   <stop stop-color="#112f4b" stop-opacity="0" offset="1"/>
  </radialGradient>
  <linearGradient id="linearGradient6864" x1="1" x2="857.67" y1="256" y2="80.497" gradientTransform="matrix(0 -1 .99962 0 .18953 512)" gradientUnits="userSpaceOnUse" xlink:href="#linearGradient1850"/>
  <radialGradient id="radialGradient16332" cx="249.19" cy="28.151" r="107.42" gradientTransform="matrix(1,0,0,1.6629,0,-18.661)" gradientUnits="userSpaceOnUse">
   <stop stop-color="#fff" offset="0"/>
   <stop stop-color="#fff" stop-opacity="0" offset="1"/>
  </radialGradient>
  <linearGradient id="linearGradient17114" x1="1" x2="857.67" y1="256" y2="80.497" gradientTransform="matrix(1 0 0 .99963 -4e-5 .18962)" gradientUnits="userSpaceOnUse" xlink:href="#linearGradient1850"/>
  <radialGradient id="radialGradient1915-3" cx="42.228" cy="359.57" r="255" fr="0" gradientTransform="matrix(-.059936 -.21933 .24859 -.061897 47.256 380)" gradientUnits="userSpaceOnUse">
   <stop stop-color="#83812e" offset="0"/>
   <stop stop-color="#d4d649" stop-opacity="0" offset="1"/>
  </radialGradient>
  <radialGradient id="radialGradient1141" cx="283.55" cy="528.15" r="202.31" gradientTransform="matrix(.8399 0 0 .8354 26.495 29.692)" gradientUnits="userSpaceOnUse">
   <stop stop-color="#333209" offset="0"/>
   <stop stop-color="#333209" stop-opacity="0" offset="1"/>
  </radialGradient>
 </defs>
 <path d="m256.09 1a254.91 255 0 0 1 254.91 255 254.91 255 0 0 1-254.91 255 254.91 255 0 0 1-254.91-255 254.91 255 0 0 1 254.91-255zm0 0a254.91 255 0 0 1 254.91 255 254.91 255 0 0 1-254.91 255 254.91 255 0 0 1-254.91-255 254.91 255 0 0 1 254.91-255zm-0.18306 0a254.91 255 0 0 1 254.91 255 254.91 255 0 0 1-254.91 255 254.91 255 0 0 1-254.91-255 254.91 255 0 0 1 254.91-255z" fill="url(#linearGradient6864)" stroke-width=".99982" style="paint-order:fill markers stroke"/>
 <path d="m511 256.09a255 254.91 0 0 1-255 254.91 255 254.91 0 0 1-255-254.91 255 254.91 0 0 1 255-254.91 255 254.91 0 0 1 255 254.91zm0 0a255 254.91 0 0 1-255 254.91 255 254.91 0 0 1-255-254.91 255 254.91 0 0 1 255-254.91 255 254.91 0 0 1 255 254.91zm0-0.18306a255 254.91 0 0 1-255 254.91 255 254.91 0 0 1-255-254.91 255 254.91 0 0 1 255-254.91 255 254.91 0 0 1 255 254.91z" fill="url(#linearGradient17114)" opacity=".62678" stroke-width=".99982" style="mix-blend-mode:exclusion;paint-order:fill markers stroke"/>
 <circle transform="rotate(-87.569)" cx="-244.91" cy="266.63" r="255" fill="url(#linearGradient4457)" opacity=".333" style="paint-order:fill markers stroke"/>
 <circle transform="rotate(-34.291)" cx="67.274" cy="355.73" r="255" fill="url(#linearGradient12623)" opacity=".84143" style="mix-blend-mode:darken;paint-order:fill markers stroke"/>
 <circle transform="rotate(34.712)" cx="356.22" cy="64.659" r="255" fill="url(#linearGradient1586)" opacity=".333" style="mix-blend-mode:lighten;paint-order:fill markers stroke"/>
 <circle transform="rotate(69.888)" cx="328.42" cy="-152.36" r="255" fill="url(#linearGradient1649)" opacity=".82357" style="mix-blend-mode:lighten;paint-order:fill markers stroke"/>
 <circle transform="rotate(-27.844)" cx="106.79" cy="345.93" r="255" fill="url(#linearGradient5374)" opacity=".48871" style="mix-blend-mode:lighten;paint-order:fill markers stroke"/>
 <ellipse transform="matrix(.84057 -.5417 .6955 .71853 0 0)" cx="134.11" cy="348.49" rx="125.41" ry="119.71" fill="url(#radialGradient1915-3)" opacity=".46208" stroke-width=".4805" style="mix-blend-mode:darken;paint-order:fill markers stroke"/>
 <circle transform="rotate(-38.302)" cx="42.227" cy="359.57" r="255" fill="url(#radialGradient1715)" opacity=".33638" style="mix-blend-mode:normal;paint-order:fill markers stroke"/>
 <ellipse transform="matrix(.60487 .79633 -.92847 .37141 0 0)" cx="383.62" cy="4.9817" rx="221.53" ry="189.32" fill="url(#radialGradient1715-5)" opacity=".33638" stroke-width=".8031" style="mix-blend-mode:normal;paint-order:fill markers stroke"/>
 <ellipse transform="matrix(.76534 -.64363 .28323 .95905 0 0)" cx="264.65" cy="470.89" rx="169.92" ry="169" fill="url(#radialGradient1141)" opacity=".56481" stroke-width=".75131" style="mix-blend-mode:normal;paint-order:fill markers stroke"/>
 <ellipse transform="matrix(.89089 .45422 -.79678 .60427 0 0)" cx="249.19" cy="28.151" rx="107.42" ry="178.62" fill="url(#radialGradient16332)" opacity=".25" stroke-width="1.871" style="mix-blend-mode:hard-light;paint-order:fill markers stroke"/>
</svg>
