<?xml version="1.0" encoding="UTF-8"?>
<svg width="512" height="512" version="1.1" viewBox="0 0 512 512" xmlns="http://www.w3.org/2000/svg" xmlns:xlink="http://www.w3.org/1999/xlink">
 <defs>
  <linearGradient id="linearGradient1386">
   <stop stop-color="#761b97" offset="0"/>
   <stop stop-color="#9d21b5" stop-opacity=".35686" offset="1"/>
  </linearGradient>
  <linearGradient id="linearGradient1586" x1="284.75" x2="110.19" y1="429.8" y2="152.85" gradientTransform="translate(100.22 -191.34)" gradientUnits="userSpaceOnUse" xlink:href="#linearGradient1386"/>
  <linearGradient id="linearGradient1649" x1="321.3" x2="149.3" y1="502.53" y2="247.86" gradientTransform="translate(72.412 -408.36)" gradientUnits="userSpaceOnUse" xlink:href="#linearGradient1386"/>
  <radialGradient id="radialGradient1715" cx="42.228" cy="359.57" r="255" gradientTransform="matrix(-.098598 .55496 -.97614 -.17343 397.38 398.49)" gradientUnits="userSpaceOnUse" xlink:href="#radialGradient1715-5">
   <stop stop-color="#080209" offset="0"/>
   <stop stop-color="#656565" stop-opacity=".4" offset="1"/>
  </radialGradient>
  <linearGradient id="linearGradient4457" x1="408.72" x2="216.31" y1="433.54" y2="315.34" gradientTransform="translate(-500.91 10.625)" gradientUnits="userSpaceOnUse" xlink:href="#linearGradient1386"/>
  <linearGradient id="linearGradient5374" x1="182.24" x2="393.23" y1="16.332" y2="790.65" gradientTransform="translate(-149.21 89.93)" gradientUnits="userSpaceOnUse" xlink:href="#linearGradient1386"/>
  <linearGradient id="linearGradient12623" x1="408.72" x2="216.31" y1="433.54" y2="315.34" gradientTransform="translate(-188.72 99.739)" gradientUnits="userSpaceOnUse" xlink:href="#linearGradient1386"/>
  <radialGradient id="radialGradient1715-5" cx="42.228" cy="359.57" r="255" fr="0" gradientTransform="matrix(-.098598 .55496 -.97614 -.17343 704.29 134.71)" gradientUnits="userSpaceOnUse">
   <stop stop-color="#080209" offset="0"/>
   <stop stop-color="#112f4b" stop-opacity="0" offset="1"/>
  </radialGradient>
  <linearGradient id="linearGradient6864" x1="1" x2="857.67" y1="256" y2="80.497" gradientTransform="matrix(0 -1 .99964 0 .18341 512)" gradientUnits="userSpaceOnUse">
   <stop stop-color="#ce1dc8" offset="0"/>
   <stop stop-color="#ce21d8" stop-opacity=".62745" offset="1"/>
  </linearGradient>
  <radialGradient id="radialGradient16332" cx="249.19" cy="28.151" r="107.42" fr="0" gradientTransform="matrix(1,0,0,1.6629,0,-18.661)" gradientUnits="userSpaceOnUse">
   <stop stop-color="#fff" offset="0"/>
   <stop stop-color="#fff" stop-opacity="0" offset="1"/>
  </radialGradient>
  <linearGradient id="linearGradient17114" x1="1" x2="857.67" y1="256" y2="80.497" gradientTransform="matrix(1 0 0 .99964 -4e-5 .18656)" gradientUnits="userSpaceOnUse" xlink:href="#linearGradient6864">
   <stop stop-color="#c83499" offset="0"/>
   <stop stop-color="#d821d5" stop-opacity=".62745" offset="1"/>
  </linearGradient>
  <radialGradient id="radialGradient1715-5-0" cx="42.228" cy="359.57" r="255" fr="0" gradientTransform="matrix(-.067736 .37582 -.6706 -.11745 509.13 500.56)" gradientUnits="userSpaceOnUse">
   <stop stop-color="#081e0f" stop-opacity=".73333" offset="0"/>
   <stop stop-color="#cd0ed2" stop-opacity=".075133" offset="1"/>
  </radialGradient>
  <radialGradient id="radialGradient1077" cx="42.228" cy="359.57" r="255" fr="0" gradientTransform="matrix(-.059936 -.21933 .24859 -.061897 43.095 390.78)" gradientUnits="userSpaceOnUse">
   <stop stop-color="#701584" offset="0"/>
   <stop stop-color="#ed46ed" stop-opacity="0" offset="1"/>
  </radialGradient>
  <linearGradient id="linearGradient974" x1="1" x2="857.67" y1="256" y2="80.497" gradientTransform="matrix(0 -1 .99963 0 .18647 512)" gradientUnits="userSpaceOnUse" xlink:href="#linearGradient6864"/>
  <radialGradient id="radialGradient976" cx="42.228" cy="359.57" r="255" fr="0" gradientTransform="matrix(-.061044 .2789 -.60434 -.087159 585.39 13.589)" gradientUnits="userSpaceOnUse" xlink:href="#radialGradient1715-5"/>
 </defs>
 <path d="m256.09 1a254.91 255 0 0 1 254.91 255 254.91 255 0 0 1-254.91 255 254.91 255 0 0 1-254.91-255 254.91 255 0 0 1 254.91-255zm0 0a254.91 255 0 0 1 254.91 255 254.91 255 0 0 1-254.91 255 254.91 255 0 0 1-254.91-255 254.91 255 0 0 1 254.91-255zm-0.18306 0a254.91 255 0 0 1 254.91 255 254.91 255 0 0 1-254.91 255 254.91 255 0 0 1-254.91-255 254.91 255 0 0 1 254.91-255z" fill="url(#linearGradient974)" stroke-width=".99982" style="paint-order:fill markers stroke"/>
 <path d="m511 256.09a255 254.91 0 0 1-255 254.91 255 254.91 0 0 1-255-254.91 255 254.91 0 0 1 255-254.91 255 254.91 0 0 1 255 254.91zm0 0a255 254.91 0 0 1-255 254.91 255 254.91 0 0 1-255-254.91 255 254.91 0 0 1 255-254.91 255 254.91 0 0 1 255 254.91zm0-0.18306a255 254.91 0 0 1-255 254.91 255 254.91 0 0 1-255-254.91 255 254.91 0 0 1 255-254.91 255 254.91 0 0 1 255 254.91z" fill="url(#linearGradient17114)" opacity=".62678" stroke-width=".99982" style="mix-blend-mode:exclusion;paint-order:fill markers stroke"/>
 <circle transform="rotate(-87.569)" cx="-244.91" cy="266.63" r="255" fill="url(#linearGradient4457)" opacity=".333" style="paint-order:fill markers stroke"/>
 <circle transform="rotate(-34.291)" cx="67.274" cy="355.73" r="255" fill="url(#linearGradient12623)" opacity=".84143" style="mix-blend-mode:darken;paint-order:fill markers stroke"/>
 <circle transform="rotate(34.712)" cx="356.22" cy="64.659" r="255" fill="url(#linearGradient1586)" opacity=".333" style="mix-blend-mode:lighten;paint-order:fill markers stroke"/>
 <circle transform="rotate(69.888)" cx="328.42" cy="-152.36" r="255" fill="url(#linearGradient1649)" opacity=".82357" style="mix-blend-mode:lighten;paint-order:fill markers stroke"/>
 <circle transform="rotate(-27.844)" cx="106.79" cy="345.93" r="255" fill="url(#linearGradient5374)" opacity=".48871" style="mix-blend-mode:lighten;paint-order:fill markers stroke"/>
 <ellipse transform="matrix(.84057 -.5417 .6955 .71853 0 0)" cx="129.95" cy="359.27" rx="125.41" ry="119.71" fill="url(#radialGradient1077)" opacity=".46208" stroke-width=".4805" style="mix-blend-mode:darken;paint-order:fill markers stroke"/>
 <circle transform="rotate(-38.302)" cx="42.227" cy="359.57" r="255" fill="url(#radialGradient1715)" opacity=".33638" style="mix-blend-mode:normal;paint-order:fill markers stroke"/>
 <ellipse transform="matrix(.40198 .91565 -.9933 .11556 0 0)" cx="365.51" cy="-5.9714" rx="157.87" ry="128.15" fill="url(#radialGradient976)" opacity=".33638" stroke-width=".5578" style="mix-blend-mode:normal;paint-order:fill markers stroke"/>
 <ellipse transform="matrix(.77087 -.637 .28783 .95768 0 0)" cx="265.14" cy="474.2" rx="175.18" ry="172.69" fill="url(#radialGradient1715-5-0)" opacity=".33737" stroke-width=".76158" style="mix-blend-mode:normal;paint-order:fill markers stroke"/>
 <ellipse transform="matrix(.89089 .45422 -.79678 .60427 0 0)" cx="249.19" cy="28.151" rx="107.42" ry="178.62" fill="url(#radialGradient16332)" opacity=".25" stroke-width="1.871" style="mix-blend-mode:hard-light;paint-order:fill markers stroke"/>
</svg>
