<?xml version="1.0" encoding="UTF-8"?>
<svg width="512" height="512" version="1.1" viewBox="0 0 512 512" xmlns="http://www.w3.org/2000/svg" xmlns:xlink="http://www.w3.org/1999/xlink">
 <defs>
  <linearGradient id="linearGradient1655">
   <stop stop-color="#681b14" offset="0"/>
   <stop stop-color="#b5211d" stop-opacity=".35686" offset="1"/>
  </linearGradient>
  <linearGradient id="linearGradient1619">
   <stop stop-color="#c83439" offset="0"/>
   <stop stop-color="#d8212b" stop-opacity=".62745" offset="1"/>
  </linearGradient>
  <linearGradient id="linearGradient1586" x1="284.75" x2="110.19" y1="429.8" y2="152.85" gradientTransform="matrix(1 0 0 1 100.22 -191.34)" gradientUnits="userSpaceOnUse" xlink:href="#linearGradient1655"/>
  <linearGradient id="linearGradient1649" x1="321.3" x2="149.3" y1="502.53" y2="247.86" gradientTransform="matrix(1 0 0 1 72.41 -408.36)" gradientUnits="userSpaceOnUse" xlink:href="#linearGradient1655"/>
  <radialGradient id="radialGradient1715" cx="42.228" cy="359.57" r="255" gradientTransform="matrix(-.098598 .55496 -.97614 -.17343 397.38 398.49)" gradientUnits="userSpaceOnUse">
   <stop stop-color="#080209" offset="0"/>
   <stop stop-color="#654b30" stop-opacity="0" offset="1"/>
  </radialGradient>
  <linearGradient id="linearGradient4457" x1="408.72" x2="216.31" y1="433.54" y2="315.34" gradientTransform="translate(-500.91 10.625)" gradientUnits="userSpaceOnUse" xlink:href="#linearGradient1655"/>
  <linearGradient id="linearGradient5374" x1="182.24" x2="393.23" y1="16.332" y2="790.65" gradientTransform="matrix(1 0 0 1 -149.21 89.928)" gradientUnits="userSpaceOnUse" xlink:href="#linearGradient1655"/>
  <linearGradient id="linearGradient12623" x1="408.72" x2="216.31" y1="433.54" y2="315.34" gradientTransform="matrix(1 0 0 1 -188.72 99.737)" gradientUnits="userSpaceOnUse" xlink:href="#linearGradient1655"/>
  <radialGradient id="radialGradient1715-5" cx="42.228" cy="359.57" r="255" gradientTransform="matrix(-.066669 .25038 -.66003 -.078245 627.31 246.43)" gradientUnits="userSpaceOnUse">
   <stop stop-color="#080209" offset="0"/>
   <stop stop-color="#112f4b" stop-opacity="0" offset="1"/>
  </radialGradient>
  <linearGradient id="linearGradient6864" x1="1" x2="857.67" y1="256" y2="80.497" gradientTransform="matrix(0 -1 .99963 0 .18647 512)" gradientUnits="userSpaceOnUse" xlink:href="#linearGradient1619"/>
  <radialGradient id="radialGradient16332" cx="249.19" cy="28.151" r="107.42" gradientTransform="matrix(1,0,0,1.6629,0,-18.661)" gradientUnits="userSpaceOnUse">
   <stop stop-color="#fff" offset="0"/>
   <stop stop-color="#fff" stop-opacity="0" offset="1"/>
  </radialGradient>
  <linearGradient id="linearGradient17114" x1="1" x2="857.67" y1="256" y2="80.497" gradientTransform="matrix(1 0 0 .99964 -4e-5 .18656)" gradientUnits="userSpaceOnUse" xlink:href="#linearGradient1619"/>
  <radialGradient id="radialGradient1715-5-0" cx="42.228" cy="359.57" r="255" gradientTransform="matrix(-.066925 .35134 -.66258 -.1098 495.72 470.04)" gradientUnits="userSpaceOnUse" xlink:href="#radialGradient1915">
   <stop stop-color="#601e0a" offset="0"/>
   <stop stop-color="#261809" stop-opacity="0" offset="1"/>
  </radialGradient>
  <radialGradient id="radialGradient1915" cx="42.228" cy="359.57" r="255" fr="0" gradientTransform="matrix(-.059936 -.21933 .24859 -.061897 60.397 387.12)" gradientUnits="userSpaceOnUse">
   <stop stop-color="#55231d" offset="0"/>
   <stop stop-color="#ed463d" stop-opacity="0" offset="1"/>
  </radialGradient>
  <radialGradient id="radialGradient891" cx="42.228" cy="359.57" r="255" fr="0" gradientTransform="matrix(-.059936 -.21933 .24859 -.061897 45.228 377.98)" gradientUnits="userSpaceOnUse" xlink:href="#radialGradient1915"/>
 </defs>
 <path d="m256.09 1a254.91 255 0 0 1 254.91 255 254.91 255 0 0 1-254.91 255 254.91 255 0 0 1-254.91-255 254.91 255 0 0 1 254.91-255zm0 0a254.91 255 0 0 1 254.91 255 254.91 255 0 0 1-254.91 255 254.91 255 0 0 1-254.91-255 254.91 255 0 0 1 254.91-255zm-0.18306 0a254.91 255 0 0 1 254.91 255 254.91 255 0 0 1-254.91 255 254.91 255 0 0 1-254.91-255 254.91 255 0 0 1 254.91-255z" fill="url(#linearGradient6864)" stroke-width=".99982" style="paint-order:fill markers stroke"/>
 <path d="m511 256.09a255 254.91 0 0 1-255 254.91 255 254.91 0 0 1-255-254.91 255 254.91 0 0 1 255-254.91 255 254.91 0 0 1 255 254.91zm0 0a255 254.91 0 0 1-255 254.91 255 254.91 0 0 1-255-254.91 255 254.91 0 0 1 255-254.91 255 254.91 0 0 1 255 254.91zm0-0.18306a255 254.91 0 0 1-255 254.91 255 254.91 0 0 1-255-254.91 255 254.91 0 0 1 255-254.91 255 254.91 0 0 1 255 254.91z" fill="url(#linearGradient17114)" opacity=".62678" stroke-width=".99982" style="mix-blend-mode:exclusion;paint-order:fill markers stroke"/>
 <circle transform="rotate(-87.569)" cx="-244.91" cy="266.63" r="255" fill="url(#linearGradient4457)" opacity=".333" style="paint-order:fill markers stroke"/>
 <g transform="matrix(.99999 0 0 .99999 .0021506 .0024943)">
  <g>
   <ellipse transform="matrix(.82619 -.5634 .56339 .82619 0 0)" cx="67.275" cy="355.73" rx="255" ry="255" fill="url(#linearGradient12623)" opacity=".84143" style="mix-blend-mode:darken;paint-order:fill markers stroke"/>
   <ellipse transform="matrix(.82202 .56945 -.56945 .82203 0 0)" cx="356.22" cy="64.659" rx="255" ry="255" fill="url(#linearGradient1586)" opacity=".333" style="mix-blend-mode:lighten;paint-order:fill markers stroke"/>
   <ellipse transform="matrix(.34385 .93902 -.93902 .34386 0 0)" cx="328.42" cy="-152.36" rx="255" ry="255" fill="url(#linearGradient1649)" opacity=".82357" style="mix-blend-mode:lighten;paint-order:fill markers stroke"/>
   <ellipse transform="matrix(.88422 -.46707 .46706 .88422 0 0)" cx="106.79" cy="345.93" rx="255" ry="255" fill="url(#linearGradient5374)" opacity=".48871" style="mix-blend-mode:lighten;paint-order:fill markers stroke"/>
  </g>
  <ellipse transform="matrix(.84057 -.5417 .6955 .71853 0 0)" cx="132.08" cy="346.47" rx="125.41" ry="119.71" fill="url(#radialGradient891)" opacity=".46208" stroke-width=".4805" style="mix-blend-mode:darken;paint-order:fill markers stroke"/>
 </g>
 <circle transform="rotate(-38.302)" cx="42.227" cy="359.57" r="255" fill="url(#radialGradient1715)" opacity=".33638" style="mix-blend-mode:normal;paint-order:fill markers stroke"/>
 <ellipse transform="matrix(.88699 .46179 -.68376 .72971 0 0)" cx="387.17" cy="228.87" rx="172.42" ry="115.05" fill="url(#radialGradient1715-5)" opacity=".30364" stroke-width=".55232" style="mix-blend-mode:normal;paint-order:fill markers stroke"/>
 <ellipse transform="matrix(.80226 -.59698 .31659 .94856 0 0)" cx="254.65" cy="445.4" rx="173.08" ry="161.44" fill="url(#radialGradient1715-5-0)" opacity=".56481" stroke-width=".67559" style="mix-blend-mode:normal;paint-order:fill markers stroke"/>
 <ellipse transform="matrix(.89089 .45422 -.79678 .60427 0 0)" cx="249.19" cy="28.151" rx="107.42" ry="178.62" fill="url(#radialGradient16332)" opacity=".25" stroke-width="1.871" style="mix-blend-mode:hard-light;paint-order:fill markers stroke"/>
</svg>
