<?xml version="1.0" encoding="UTF-8"?>
<svg width="512" height="512" version="1.1" viewBox="0 0 512 512" xmlns="http://www.w3.org/2000/svg">
 <path d="m236.7 19.233c-17.049 54.667-34.098 109.33-51.147 164-46.253-0.21878-92.507-0.43756-138.76-0.65634 42.053 28.534 84.107 57.067 126.16 85.601-31.973 64.19-63.946 128.38-95.919 192.57 53.143-49.383 106.29-98.767 159.43-148.15 52.723 48.877 105.45 97.753 158.17 146.63-29.564-64.977-59.127-129.95-88.691-194.93 42.057-26.902 84.113-53.804 126.17-80.706l-136.83 0.92934c-19.528-55.096-39.055-110.19-58.583-165.29z" fill="none" stroke="#2d2de5" stroke-width="10"/>
 <path d="m312.26 266.17 86.908 191-7.9358 5.7253 51.532 48.203-92.359-209.72 134.13-80.99-35.193-41.889z" fill="#16166b"/>
 <path d="m236.49 319.35 40.069 37.19-157.35 151.67-38.783-43.981z" fill="#16166b"/>
 <path d="m30.22 177.68 0.28283 8.8636 130.62 94.282 5.5573-10.868z" fill="#21219c"/>
 <path d="m298.68 179.4-62.263-175.7 45.308 42.857 36.628 132.86z" fill="#2424ad"/>
</svg>
