<?xml version="1.0" encoding="UTF-8"?>
<svg width="163.84" height="163.84" version="1.1" viewBox="0 0 163.84 163.84" xmlns="http://www.w3.org/2000/svg">
 <defs>
  <linearGradient id="linearGradient2993" x1="-14.558" x2="-13.729" y1="217.07" y2="216.4" gradientUnits="userSpaceOnUse">
   <stop stop-color="#505050" offset="0"/>
   <stop stop-color="#282828" offset="1"/>
  </linearGradient>
 </defs>
 <g transform="translate(1.8899,9.3453)">
  <ellipse transform="matrix(.70391 -.71029 .69146 .72242 0 0)" cx="-8.0144" cy="98.206" rx="7.7603" ry="10.426" fill="#fff" fill-opacity=".98782"/>
  <ellipse transform="rotate(-30.701)" cx="9.5384" cy="98.211" rx="3.8124" ry="6.5982" fill="#c29fa0" fill-opacity=".99732" stroke="#1112b2" stroke-linecap="square" stroke-linejoin="round" stroke-width="4.8"/>
  <path d="m53.428 88.52c-1.3515-0.10587-3.153-0.59248-3.1957-2.2479-0.33567-2.063-0.40078-4.1784-0.24566-6.2598 0.40188-2.9297 1.2894-5.7935 2.4912-8.4917 0.99112-2.1105 2.4016-4.1165 4.419-5.3542 1.4268-0.42749 2.9607-0.28404 4.4167-0.11803 1.91 0.44911 3.6155 1.5083 5.2266 2.5884 2.3802 1.8327 4.4352 4.1333 5.9159 6.7499 0.8498 1.662 1.2743 3.5704 1.0714 5.4306 0.37015 0.98977 1.2244 2.4063-0.36701 2.7723-1.2503 0.92195-2.8244 1.0998-4.1344 1.8773-2.2359 1.3105-4.3844 3.1299-7.0957 3.2422-2.828 0.27384-5.6843 0.12644-8.5021-0.18914zm9.8118-3.3311c4.8962-1.1606 8.1108-1.4011 7.0597-5.6-0.13615-2.5828-1.3427-5.0756-3.3529-6.7164-1.2249-1.0093-2.5884-1.8611-3.6374-3.0688-1.2603-0.92935-2.736-1.5557-4.2051-2.0762-1.438-0.61749-3.1494 0.38164-3.2556 1.9532-0.20496 1.044 1.3708 2.001 0.02277 2.7735-1.1894 0.49975-2.7688 1.5725-2.0049 3.064 0.67497 0.86434 1.9419 0.11424 2.8503 0.60679 2.9526 0.85753 5.163 3.9536 4.7625 7.0476-0.01675 0.89081-0.29273 1.8209-0.1124 2.6884 0.5471 0.64944 1.5349-0.18338 1.873-0.67204z" stroke="#000" stroke-width=".12"/>
  <ellipse transform="matrix(.84315 -.53767 .56163 .82739 0 0)" cx="1.4468" cy="99.06" rx="5.116" ry="6.142" fill="#000096" fill-opacity=".7199" opacity=".6996"/>
  <ellipse cx="53.694" cy="84.994" rx="1.1789" ry="1.4863" fill-opacity=".98782"/>
 </g>
 <path d="m54.83 140.89c-1.0388-4.3418-7.8492-1.9668-11.216-1.5484-8.0192 1.9457-15.005 6.9441-19.95 13.492-1.3353 3.137-4.6161 5.123-6.2067 0.95035-6.6501-10.101-9.2684-22.58-8.2443-34.564 0.75355-14.02 3.2463-28.268 9.9764-40.745 1.7387-4.6618 5.6426-7.8208 8.6779-11.568 3.965 0.35379 7.8466 1.5171 10.881 4.265 6.0882 4.1644 8.1587 11.512 10.122 18.2 2.8324 10.222 11.485 17.22 19.992 22.796 2.449 1.8891 4.3306 4.3703 6.3377 6.697-0.12904 2.1993 0.13129 5.7852-3.0166 5.5732-3.0909 2.8316-6.283 5.6397-9.1438 8.6906-1.9158 3.0642-5.0993 5.2964-7.8659 7.6192l-0.344 0.14165z" fill="#d2953a" stroke="#000" stroke-width="4.8009"/>
 <path d="m33.077 91.825c-0.40741-0.26807-0.48451-0.80535-0.43487-1.2552 0.10548-0.88656 0.55441-1.6988 1.111-2.3824 0.51885-0.57354 1.3933-0.74155 2.1158-0.5121 0.45574 0.1339 0.79726 0.52116 0.93684 0.96708 0.27831 0.85928 0.03389 1.8198-0.47478 2.5436-0.27486 0.37835-0.60008 0.79175-1.0869 0.88524-0.57593 0.1022-1.173 0.05048-1.7397-0.08304-0.14702-0.039549-0.29705-0.082068-0.42732-0.1632z" opacity=".64168"/>
 <path d="m25.516 66.457c0.64655-0.88077 0.96008-1.2657 0.98953-1.8406 0.21548-4.2061 1.339-12.55 2.1588-16.031 0.86146-3.6587 1.1873-3.879 6.1433-4.1538l4-0.2218 2.9402-3.1444h6.9509c9.1459 0 9.6539 0.27741 6.2608 3.4188-2.8205 2.6113-4.0672 4.5697-2.3431 3.6807 0.32514-0.16766 1.0232-0.48244 1.5512-0.69951s1.21-0.52187 1.5156-0.67733c0.30562-0.15547 0.83712-0.28267 1.1811-0.28267s0.70462-0.12809 0.80137-0.28464c0.0968-0.15655 0.64526-0.35916 1.2189-0.45023 0.57363-0.09107 1.619-0.32506 2.323-0.51999 4.5704-1.2655 9.8489-2.0931 16.32-2.5589 4.5682-0.32884 6.4306-1.0249 13.76-5.1427 4.9075-2.7572 16.961-11.583 22.532-16.499 0.8073-0.7123 1.9718-1.7017 2.5878-2.1986s2.8307-2.5062 4.9215-4.4649c4.3608-4.0853 4.7256-4.3346 6.3653-4.35 2.2536-0.02117 2.2877 1.7223 0.22219 11.349-0.15106 0.704-0.36123 1.712-0.46705 2.24-0.10581 0.528-0.34144 1.536-0.5236 2.24s-0.48003 1.856-0.66191 2.56c-0.61493 2.3801-0.99436 3.1968-1.9697 4.24-0.5348 0.572-1.0903 1.04-1.2345 1.04-0.52643 0-3.8307 2.3805-3.4708 2.5005 0.40923 0.13641 2.8792-0.7156 4.5742-1.5778 0.30561-0.15547 0.83711-0.28267 1.1811-0.28267s0.71446-0.144 0.82323-0.32 0.41223-0.32 0.67434-0.32c0.26212 0 1.0727-0.288 1.8012-0.64 0.72856-0.352 1.4432-0.64 1.588-0.64s0.94581-0.30476 1.7799-0.67724c0.83408-0.37248 1.9485-0.8594 2.4765-1.082 4.2325-1.7847 5.307-2.2851 12.32-5.7371 5.986-2.9465 10.04-5.071 10.72-5.6181 0.90646-0.72913 2.8333-1.6056 3.5297-1.6056 0.70909 0 0.79027 0.13193 0.79027 1.2843 0 0.70639-0.13249 1.5344-0.29443 1.84-0.16193 0.30561-0.61033 1.4197-0.99643 2.4757-0.6858 1.8757-0.97373 2.5901-2.0312 5.04-0.28488 0.66-0.75093 1.74-1.0357 2.4-1.3211 3.0622-5.4776 11.29-6.4559 12.78-1.1324 1.7242-2.2789 2.4479-5.1864 3.2737-0.792 0.22494-1.69 0.53895-1.9957 0.69779-0.30561 0.15885-0.90911 0.28881-1.3411 0.28881s-0.87446 0.144-0.98323 0.32c-0.1296 0.2097 2.2735 0.32 6.9715 0.32 6.5391 0 7.2158 0.05144 7.6989 0.5852 0.29128 0.32186 0.5296 0.79428 0.5296 1.0498 0 0.4822-8.5519 8.7699-11.36 11.009-2.1623 1.7242-2.8494 2.075-4.0756 2.0807-0.57438 3e-3 -1.2428 0.1306-1.4853 0.28423-0.63732 0.40367-0.1412 0.99087 0.83717 0.99087 0.46111 0 1.2806 0.13425 1.8211 0.29832s1.6307 0.47073 2.4227 0.68146 1.9163 0.59119 2.4985 0.84547c0.91547 0.39986 1.0452 0.59726 0.96 1.4608-0.0872 0.88391-0.35682 1.129-2.35 2.1362-2.4991 1.2629-5.4797 2.6017-7.1885 3.2291-0.616 0.22616-1.2568 0.53212-1.424 0.67991s-0.49816 0.26871-0.73546 0.26871-1.0276 0.288-1.7561 0.64c-0.72856 0.352-1.5568 0.64-1.8406 0.64-0.28374 0-0.68389 0.168-0.88922 0.37334-0.46483 0.46482-3.8483 0.48954-5.0796 0.0371-0.50327-0.18492-1.563-0.51362-2.355-0.73045-0.792-0.21682-1.8-0.50482-2.24-0.64-2.8916-0.88835-3.543-1.0436-3.7038-0.88289-0.0993 0.0993 0.13371 0.87862 0.51786 1.7318 1.226 2.7227 4.2408 8.898 4.5289 9.2766 0.20478 0.26912 0.71815 0.21685 1.9476-0.19829 4.0104-1.3542 4.2931-1.404 5.4128-0.95329 0.58117 0.23392 2.0647 1.0963 3.2967 1.9163 1.232 0.82005 2.3902 1.5492 2.5738 1.6204s2.0669 1.2691 4.1852 2.662c4.1223 2.7107 4.9933 3.728 4.2337 4.9443-0.4309 0.68998-1.2065 0.99182-2.5665 0.99878-1.0558 5e-3 -1.8662 0.30009-1.8662 0.6786 0 0.15717 0.28067 0.28576 0.62372 0.28576 0.34304 0 0.96691 0.468 1.3864 1.04 0.90477 1.2338 3.1731 5.9126 4.3827 9.04 0.13614 0.352 0.40734 1.0381 0.60266 1.5247 0.30075 0.74923 0.2571 0.98275-0.28503 1.5249-0.38821 0.38821-0.92161 0.58627-1.3553 0.50324-4.7809-0.91536-6.2865-1.2528-8.042-1.8024-0.50979-0.15961-1.0498-0.21424-1.2-0.12141-0.15021 0.0928-0.27391 1.1323-0.2749 2.3099-2e-3 2.0456-0.20714 3.2388-1.016 5.9011-0.32226 1.0607-0.48348 1.2-1.3884 1.2-0.56311 0-1.9441-0.45096-3.0688-1.0021-1.1247-0.55118-2.405-1.144-2.845-1.3173-0.44-0.17337-1.05-0.44241-1.3557-0.59787-0.30561-0.15547-0.83711-0.28267-1.1811-0.28267s-0.71446-0.144-0.82323-0.32-0.55123-0.32-0.98323-0.32-1.0634-0.17361-1.4032-0.3858c-0.5088-0.31774-0.7338-0.28077-1.2757 0.2096-0.36185 0.32747-0.6579 0.77262-0.6579 0.98924 0 0.3996-2.4359 5.2534-3.5367 7.047-0.62695 1.0216-1.4677 1.5614-2.922 1.8758-0.52451 0.11339-0.93707 0.46555-1.0601 0.90489-0.21629 0.77227-0.70178 1.977-1.1586 2.8749-0.15547 0.30561-0.28267 0.70857-0.28267 0.89546s-0.288 0.93589-0.64 1.6644c-0.352 0.72856-0.64 1.4432-0.64 1.588s-0.288 0.90981-0.64 1.6999l-1.28 2.873c-0.352 0.79009-0.64 1.5551-0.64 1.7001s-0.33956 0.97455-0.75457 1.8435c-0.73964 1.5486-1.2903 2.7782-2.3198 5.1799-0.28292 0.66-0.84172 1.92-1.2418 2.8-0.40007 0.88-0.98103 2.176-1.291 2.88-0.31001 0.704-0.90321 1.991-1.3182 2.8599-0.41502 0.86894-0.75457 1.6957-0.75457 1.8372s0.48953 0.89866 1.0878 1.6825c0.98239 1.287 2.0167 3.24 3.0269 5.7154 0.56649 1.3882 0.45853 1.8249-0.45107 1.8249-0.64486 0-0.9169-0.25206-1.2951-1.2-0.78694-1.9722-1.7209-3.7399-2.4769-4.688l-0.71194-0.89285-1.1926 0.70362c-2.5131 1.4828-2.7823 0.0747-0.73697-3.8541 2.7238-5.2319 4.7539-9.4472 5.4656-11.349 0.39524-1.056 1.23-3.288 1.8549-4.96s1.5226-3.904 1.9946-4.96 1.2844-3.504 1.8053-5.44c2.0661-7.6798 1.9683-7.1752 1.5005-7.7395-0.663-0.79981-4.4783-3.7827-5.5534-4.3417-1.2448-0.64728-2.5204-2.0216-2.263-2.438 0.30042-0.48609 2.2564 0.29931 4.5554 1.8292 1.0836 0.72107 2.0196 1.4381 2.08 1.5934 0.2221 0.5709 3.7812 3.2423 4.5902 3.4453 0.62325 0.15643 1.0344 0.0223 1.621-0.52875 0.72976-0.68557 2.3786-3.8239 2.3786-4.5273 0-0.46588-1.2489-1.4481-3.0244-2.3784-3.0408-1.5934-4.9756-3.1528-4.9756-4.01 0-0.50034 0.27409-0.58422 1.9091-0.58422 1.05 0 2.382 0.19719 2.96 0.43821 2.0689 0.86274 3.3219 1.2478 5.3709 1.6505 1.983 0.38973 4.5347 1.1892 7.68 2.4061 0.792 0.30643 2.088 0.80325 2.88 1.104s1.69 0.67613 1.9957 0.83406c1.3886 0.7176 1.5243 0.46016 1.5243-2.8911 0-3.1054-0.0202-3.1922-0.88-3.7906-1.6794-1.1686-12.132-3.3966-15.6-3.325-1.5719 0.0324-3.04-0.27199-3.04-0.63032 0-0.21654 0.65102-0.26824 1.84-0.14611 2.8626 0.29403 3.6262 0.2467 4.4208-0.27397 0.59578-0.39036 1.1688-0.42934 2.976-0.20241 1.231 0.15457 2.4121 0.3885 2.6246 0.51985s1.7148 0.26056 3.3385 0.28714c2.1802 0.0357 3.1698 0.19099 3.7848 0.59397 0.45802 0.30011 1.3348 0.54565 1.9484 0.54565s1.9507 0.23197 2.9713 0.51548c1.0206 0.28352 2.571 0.71552 3.4454 0.96 2.4428 0.68306 2.8426 0.61556 2.5789-0.43548-0.12142-0.484-0.85703-2.0115-1.6347-3.3945s-1.4139-2.6301-1.4139-2.7714c0-0.59673-2.9352-1.5678-5.76-1.9056-1.672-0.19994-3.4-0.43546-3.84-0.52338-0.72861-0.1456-5.677-0.53895-11.84-0.94119-1.32-0.0862-2.58-0.22125-2.8-0.30023-0.87335-0.31352-0.32027-1.0059 1.12-1.4021 0.836-0.22996 1.9375-0.5494 2.4478-0.70986 0.51027-0.16047 2.5983-0.29366 4.64-0.29598 3.9425-5e-3 14.209-0.7803 14.75-1.1146 0.59895-0.37017 0.32693-0.7199-1.5181-1.9518-1.012-0.67568-1.984-1.3878-2.16-1.5825-0.6344-0.7017-3.407-2.1455-4.6612-2.4273-1.3719-0.30825-6.5301 0.30656-9.9904 1.1908-1.0184 0.26022-1.9664 0.40217-2.1067 0.31544-0.14033-0.0867-1.1071 0.19256-2.1484 0.62065-2.1128 0.86859-3.7293 1.0439-3.4732 0.3766 0.2966-0.77294 1.9867-1.5031 3.4793-1.5031 1.9244 0 2.0899-0.47462 0.97863-2.8055-2.4563-5.1519-3.0222-6.4633-3.5154-8.1457-0.2952-1.0072-0.78685-2.1592-1.0926-2.56-0.30572-0.40085-0.8005-1.5236-1.0995-2.4949-0.29902-0.97134-0.82872-2.2348-1.1771-2.8077s-0.63347-1.4702-0.63347-1.9939c0-1.2776 1.0587-1.2871 2.3848-0.0214 0.53639 0.51197 1.4792 1.0792 2.0952 1.2604 1.5557 0.4578 3.8752 1.2856 4.64 1.656 0.352 0.17046 1.504 0.59195 2.56 0.93665 3.1964 1.0433 4.7747 1.6495 5.1881 1.9926 0.74123 0.61518 2.8138 0.36993 5.5319-0.65457 10.656-4.0165 9.8259-3.5744 7.68-4.0896-2.0688-0.4967-5.0356-1.0047-8.16-1.3972-1.232-0.15476-3.248-0.50498-4.4799-0.77826-1.2319-0.2733-2.7012-0.4969-3.2649-0.4969-0.56379 0-1.3558-0.12778-1.7601-0.28396-0.40429-0.15618-1.5271-0.45905-2.4951-0.67305-3.2904-0.72742-8.1526-2.3035-10.56-3.4229-3.3698-1.567-3.36-1.561-3.36-2.051 0-0.68322 2.4505-0.89094 7.0658-0.59895 2.2738 0.14385 7.7342 0.47888 12.134 0.74451 4.4 0.26564 8.8919 0.55834 9.9821 0.65045 2.104 0.17779 1.8673 0.26171 6.8179-2.4175 4.3337-2.3453 8.64-5.404 8.64-6.1367 0-0.35176-7.0544-0.07643-10.88 0.42463-1.32 0.17289-3.696 0.48014-5.28 0.68279-1.5891 0.2033-8.9364 0.42581-16.392 0.49643-10.795 0.10225-13.779 0.22222-14.84 0.59665-1.339 0.47244-4.6043 0.63414-5.5417 0.27442-0.2784-0.10683-0.50617-0.46409-0.50617-0.7939 0-0.66983 0.2407-0.74595 4-1.2649 1.408-0.19437 3.3728-0.55895 4.3662-0.81018 0.9934-0.25122 2.3447-0.45677 3.0029-0.45677 0.65818 0 1.7174-0.13355 2.3538-0.29677 1.1588-0.29719 3.5428-0.80892 8.0371-1.7252 1.32-0.2691 3.912-0.72884 5.76-1.0216 5.1811-0.82088 6.4322-1.0407 8.16-1.4336 0.88-0.20014 2.392-0.49306 3.36-0.65094s2.768-0.51674 4-0.79747 3.0984-0.63967 4.1475-0.79763c1.3969-0.21033 2.0582-0.48388 2.4707-1.022 0.72101-0.94056 2.5018-4.632 2.5018-5.186 0-0.23236 0.28926-0.79022 0.64281-1.2397 0.35355-0.44946 0.73583-1.2969 0.84952-1.8832s0.50842-1.4531 0.87719-1.9262c1.4938-1.9166 2.4433-3.7843 2.635-5.1829 0.20038-1.4619 0.19309-1.4768-0.72108-1.4734-0.50792 0.0019-2.1475 0.57634-3.6435 1.2766s-2.9048 1.2747-3.1306 1.2766c-0.22585 0.0019-1.1618 0.38414-2.08 0.84944-2.0574 1.0427-5.4708 2.4795-8.2294 3.4641-1.144 0.40832-3.16 1.1857-4.48 1.7275-4.8806 2.0032-8.8596 3.4891-9.9345 3.71-1.2102 0.24867-4.6171 1.5298-6.3855 2.4011-0.616 0.30352-3.352 1.0828-6.08 1.7317-2.728 0.64892-5.6605 1.3913-6.5168 1.6497-0.85621 0.25844-1.9743 0.46988-2.4847 0.46988-0.51037 0-2.1858 0.64774-3.7233 1.4394-1.8254 0.94-3.2051 1.4396-3.9764 1.44-1.2313 6.4e-4 -1.6498-0.27598-1.2778-0.84449 0.27021-0.41294 3.1304-1.8545 4.2208-2.1273 0.44104-0.11035 1.9657-0.96633 3.3882-1.9022 1.4225-0.93586 3.2216-1.9615 3.9981-2.2793 2.2313-0.91302 4.1861-1.8752 5.5718-2.7425 0.704-0.44063 1.928-1.1253 2.72-1.5215s2.88-1.4933 4.64-2.438c3.0075-1.6142 3.2517-1.8218 4.0589-3.4509 0.47241-0.95333 1.1027-2.6693 1.4006-3.8133s0.82599-2.872 1.1735-3.84c1.0826-3.0161 1.859-5.9027 1.6998-6.32-0.084-0.22-0.31811-0.4-0.52031-0.4-0.35803 0-4.7498 3.7291-6.3926 5.428-0.45109 0.46649-1.3871 1.2694-2.08 1.7842-0.69292 0.51483-2.9878 2.3126-5.0998 3.995-4.8943 3.8989-8.9557 6.7766-11.091 7.8584-0.923 0.46772-2.0452 1.0988-2.4938 1.4023-0.4486 0.30356-1.4636 0.96644-2.2556 1.4731-0.792 0.50662-1.8702 1.2686-2.3959 1.6933-1.4125 1.141-12.056 6.1932-14.154 6.7186-0.66568 0.16671-2.6965 0.39091-4.513 0.4982-8.1745 0.48288-16.168 2.5666-23.953 6.2442-4.2675 2.0159-5.1832 2.5438-7.0522 4.0661-1.4585 1.188-2.6522 1.7583-2.6522 1.2672 0-0.56669 2.9899-5.2109 4.3676-6.7841 0.94182-1.0755 1.7124-2.0801 1.7124-2.2325 0-0.15234 1.0362-1.3202 2.3027-2.5951 1.2665-1.275 2.2297-2.3911 2.1405-2.4803-0.34293-0.34292-6.5425-0.27814-7.1994 0.07524-0.37186 0.20006-0.86316 0.83724-1.0918 1.416-0.22863 0.57873-0.65768 1.3402-0.95347 1.6922-0.56489 0.67227-1.216 1.7968-4.076 7.04-0.96003 1.76-2.0832 3.704-2.496 4.32s-1.1313 2.1531-1.5967 3.4159c-0.46543 1.2627-1.1216 2.545-1.4581 2.8496-0.59548 0.5389-0.61187 0.50639-0.61187-1.2132 0-1.9517 0.5889-3.7065 2.7158-8.0923 0.76816-1.584 1.5414-3.341 1.7184-3.9046 0.17697-0.56351 0.6853-1.5596 1.1296-2.2135 0.93442-1.3751 0.84214-1.722-0.45811-1.722-0.51508 0-1.5874-0.17408-2.3828-0.38684-1.833-0.49025-2.078-0.26479-3.2017 2.9468-1.79 5.1158-2.0453 6.3008-2.4109 11.191-0.34649 4.6338-0.42143 4.9986-1.1695 5.6919m47.332 52.26-0.13444 2.1115c-0.15271 2.3982-0.85929 3.3059-2.5732 3.3059-0.77267 0-1.4834 0.50736-3.5864 2.56-1.4425 1.408-2.7169 2.56-2.8321 2.56-0.49191 0-4.3413 3.335-4.1698 3.6125 0.46739 0.75624 4.1736 1.7468 7.2871 0.14718 1.7803-0.91471 10.096-4.1975 10.096-3.2985 0 0.72046-4.8651 3.7626-6.9883 4.3698-1.2262 0.35065-2.5802 1.0305-3.4154 1.715-1.4405 1.1804-2.7162 1.4875-2.7162 0.65401 0-0.60511-0.76211-0.62402-1.2542-0.0311-0.28604 0.34466-0.27657 0.48894 0.0408 0.62142 0.47148 0.19681 0.44956 0.21484-2.3066 1.8985-1.3334 0.81451-1.76 1.2584-1.76 1.8312 0 0.57424-0.42076 1.0092-1.7494 1.8086-0.96219 0.57887-1.8541 1.3353-1.982 1.681-0.12788 0.3457-0.52664 0.78596-0.88614 0.97836-0.71162 0.38085-3.018 3.6757-3.2834 4.6906-0.4228 1.6168-2.9325 5.0304-5.699 7.7516-3.2218 3.169-4.3947 3.9385-7.1102 4.6648-0.92937 0.24858-2.3199 0.67989-3.09 0.95847-1.4746 0.53339-4.1998 0.69119-4.1998 0.24317 0-0.14482 1.044-0.73747 2.32-1.317 4.9385-2.2429 5.7376-2.6706 7.5893-4.0626 2.0067-1.5084 4.7608-4.5121 6.1224-6.6771 1.0379-1.6503 2.2083-4.1824 2.2083-4.7776 0-0.25553 0.144-0.5536 0.32-0.66237s0.32-0.54077 0.32-0.96 0.12809-0.84139 0.28464-0.93815c0.15655-0.0968 0.37676-0.71725 0.48934-1.3789 0.11258-0.66164 0.2866-1.6569 0.3867-2.2116 0.13731-0.7609 0.0171-1.1736-0.48933-1.68" stroke="#000002" stroke-width=".32"/>
 <g stroke="#000">
  <path d="m28.59 64.449c0.90126-5.7895 2.0477-11.553 4.0044-17.233l5.0124 0.49456c-2.4508 5.4538-4.6631 10.914-5.598 16.408 1.8706-1.5782 2.1142-3.2612 3.1012-4.2331l8.6541-15.459 8.0868-0.80372-11.011 13.542 0.20316 1.3818 2.4554-1.5856c6.5589-5.5325 12.613-6.2192 18.853-8.6844l14.935-1.8182 11.885-5.3361 22.525-14.27 13.571-11.237-1.4743 7.9573-3.516 7.9473c-9.5164 4.8375-17.653 10.574-28.332 14.559l0.2348 0.77945 1.7798 1.0135 4.8863-2.0237 4.0614-1.5562 21.956-6.2663 29.307-11.912 0.9838-0.39672-0.14664 3.0613-3.7216 6.7565-3.7926 7.4836-48.978 8.8903-0.85043 1.8833 5.094 0.4717 4.4773-1.2214 44.214-1.7687-13.22 9.1881-30.697-2.0133-0.46987 0.48552 0.27573 1.0405s9.2781 3.384 9.5346 3.4426c0.25654 0.0586 25.097 5.015 25.097 5.015l-10.264 4.2692-3.1094 0.29911-1.2314-0.60518-13.062-4.9431-1.9418-1.331-1.0423-0.20166-0.52918 1.2382 1.0825 2.8366 7.1679 16.844-0.64241 0.62483-3.4644 0.8485-1.0017 1.0643 0.6347 0.60809s4.483-1.6584 4.6295-1.5705c0.14649 0.0879 11.628-1.4886 11.628-1.4886l2.9415 0.80643 4.3568 3.146 1.8815 1.3318 0.0303 0.43296-15.343 1.1204-3.2837 0.14917-2.2728 0.46806-1.2408 0.45628-0.85396 0.57199-0.68615 0.60087 4.6101 0.87752 11.246 0.87195 7.4852 1.2216 1.3902 0.79348 3.4924 6.9103-0.55502 0.21955-5.2759-1.2436-4.2642-0.96188-8.8342-1.2968-4.4944-0.57058-1.312 0.90838-5.3744-0.25351-0.49062 0.33365s2.0648 0.96264 2.2402 0.96264 4.6211-4e-3 4.6211-4e-3l12.62 3.1592 0.21191 6.6152-0.8231-0.0712-21.706-6.9521-1.0914 0.40018-0.51086 0.24963 0.37934 2.0372 7.1487 4.4811c-0.0202 1.7421-0.85344 3.4791-3.0314 5.2076 0 0-2.335-0.91955-2.335-1.2711 0-0.35158-2.6968-3.0953-2.6968-3.0953l-6.6563-2.6104 0.86196 1.5814 5.0544 3.472s1.7052 2.0491 1.8865 2.1015c1.5769 0.45603-12.534 37.459-14.185 37.204l0.81961 2.0958 2.8016-1.8986 3.8098 6.4058-69.484 0.0441 9.0778-2.0541 4.0685-3.2916 6.6272-8.3319 0.02697-1.7984 5.256-5.0217 2.6707-2.8128 3.2508-2.9502 0.84101-1.1083s4.6265-2.7987 5.407-2.4456l6.6158-1.9586 1.8796-1.5863-0.15566-1.2702-1.7555 0.48954c-3.135 1.8172-8.499 3.9077-12.468 4.2068l7.5575-7.1615 4.113-2.2993 1.1835-6.4774-7.1501-7.4744c-5.974-3.5419-10.131-8.1045-14.879-12.335 0 0 4.5497 0.3227 4.8832 0.34674 0.33354 0.02405 5.5876-0.77013 5.5876-0.77013 2.4777-1.53 4.94-3.0717 7.9227-4.2156l1.3107-1.7736-0.24655-1.9971s0.0053-1.7004 0.17191-1.7844c0.16657-0.08404-1.3566-3.8719-1.3566-3.8719l-2.3625-3.3068s0.41024 0.18392-5.9253-3.7203c-5.2228-3.2185-5.3923-2.4508-7.2788-1.6485 0 0-0.14493 0.04622-0.29979 0.24343-1.0893 1.3871-4.6675 4.0258-4.428 5.0287 0.1642 0.68779-2.3499 9.1847-2.3499 9.1847l-2.5707-8.6234-2.9133-5.8225-3.2111-3.8097-9.8583-6.5404-2.1172-0.33482z" fill="url(#linearGradient2993)" stroke-width="1px"/>
 </g>
 <path d="m102.95 163.93c-0.42484-1.6303 1.0554 1.2304 0 0zm-6.6763-4.8448c5.2324-8.8534 6.548-19.375 8.6768-29.279 2.0284-6.2394-0.37046-13.284-2.3433-17.897 4.5432-0.32616 11.124 8.6098 13.835 2.3013-2.888-1.2245-11.518-7.1051-3.6932-7.1484 6.6005-0.26603 15.25 7.0991 20.331 2.6127-0.88303-3.3896-2.2945-3.5354 0.77598-0.79751 2.4219 5.862-3.7466 6.4206-7.13 3.2975-5.493-1.6036-11.218-5.2444-17.078-3.2923 3.4644 2.575 12.552 7.0642 4.5184 10.63-3.6492-0.13967-9.6288-8.7317-10.748-5.4594 6.7744 3.4868 8.6363 10.611 4.3362 16.839-2.9641 8.6949-6.5449 17.189-10.871 25.296-2.367 3.9782 6.8558 1.3205-0.60914 2.8969zm46.049-52.432c-8.8741-2.6373-18.378-4.5623-27.53-2.7052 3.8696 0.84504 13.361 1.4548 13.857 2.4468-4.2813-1.573-12.822-0.0724-14.511-3.2694 5.4142-4.2925 13.114-1.8993 19.345-0.95259 3.6839 2.18 10.827-1.0123 4.0026-3.5226-2.929-1.3049 7.2723 1.2486 5.8686 5.1063 0.88602 1.4862 2.4336 4.3423-1.032 2.8967zm-9.9956-8.8513c3.1231-0.19685 1.2337 0.34002 0 0zm-8.7244-0.58255c-2.972-0.8849-12.851 0.14024-11.09-1.5952 6.7156-4.2399 17.647-3.0075 22.816-7.043 3.4948 0.65032 6.5935 5.5685 0.38857 4.8049-6.0014 1.0041-13.344-1.0066-18.448 2.3999 2.3209 1.7041 11.851 0.61001 12.121 1.7762-1.9289-0.11922-3.8587-0.23109-5.7876-0.34276zm18.966-1.6496c2.7182-0.71317-0.0119 0.73506 0 0zm-40.466-3.4648c3.4704-13.13-0.89156-28.797-13.031-35.947-7.1261-4.825-15.909-5.9494-24.291-5.7179 4.5079-2.2517 13.116-1.873 19.175-1.87 6.6417 0.54912 13.254 1.5046 19.831-0.17867 16.952-2.9575 33.4-8.799 48.761-16.444 5.0153-4.9566-0.72382-7.0055-4.7215-3.1502-7.9709 3.2508-15.864 6.7389-24.09 9.315 9.8107-3.7699 19.531-7.7691 29.228-11.822 5.7649 2.509-4.1044 9.4403-3.7574 14.063-5.1086 6.2768-14.519 4.0585-21.514 6.6229-9.4586 1.6556-18.882 3.5094-28.348 5.1197 2.0555 4.1848 11.304-0.92616 16.09 0.84894 3.5666-0.23342 15.768 0.18385 5.8524 0.54269-3.2534 0.10656-13.058-0.65277-12.185 0.73694 12.497 1.3009 25.169 2.0054 37.664 0.30075 2.8031-2.4961 6.5127-4.3804 1.7408-0.56752-6.3905 5.6566-14.778 6.6499-22.862 5.072-5.3538 0.06651-15.127-2.1375-17.771 0.15725 6.3159 5.3706 15.315 5.172 22.97 7.3627 2.9679-0.01605 15.1 1.4153 6.871 4.0829-6.4484 3.7422-13.523 1.4288-19.591-1.6064-3.4656-2.7752-9.7342-3.6893-5.4697 2.2007 1.1253 5.3843 6.6716 11.367 5.6245 16.247-5.0568 2.8984-10.061 3.3943-16.176 4.6306zm14.78-2.8849c5.8424-1.6914 0.89346 0.62449-1.4303 0.54494zm4.8-1.1085c4.2581-0.93662-1.8574 0.96605 0 0zm2.16-0.53193c1.7614-0.66559 0.40176 0.69041 0 0zm2.0861-0.32984c2.7182-0.71317-0.0119 0.73506 0 0zm6.1539-0.09823c-2.1727-1.0991 4.7656 1.2729 0 0zm-4.0763-0.22632c3.1835-0.52558 0.71504 0.59401 0 0zm-97.041-17.69c0.3561-0.86207 1.2252 1.4995 0 0zm43.678-22.891c2.4268 1.4332 12.241-4.1537 9.7921-2.3635-3.3204 2.5971-10.058 3.2378-12.611 2.5667 0.93594-0.11155 1.8779-0.15512 2.8184-0.20321zm65.107 17.746c-0.42492-1.6303 1.0554 1.2303 0 0zm11.373-8.0788c0.77514-1.0321 2.9227-2.5859 0.84243-0.70535zm-18.88-3.4446c2.7017-0.38428 13.495-1.1504 5.3599-0.1281-0.81765 0.05578-9.0837 0.81548-5.3599 0.1281zm11.12-1.1668c2.7309-0.265 2.5186 0.37085 0 0zm4.0044-0.31812c3.1231-0.19687 1.2338 0.34004 0 0zm8.8348-2.2504c-0.9441-1.5597 2.0558 2.2033 0 0zm-65.079-1.7014c-5.0376 0.24856-4.9264-2.0832-0.44408-3.2124 9.726-5.2893 19.354-10.897 28.3-17.413 3.1413-1.1674 9.4836-13.143 2.4635-7.7899-9.5597 9.6026-21.323 16.684-33.005 23.455 3.8773-2.545 10.021-6.2517 14.73-9.2492 7.8232-5.1725 14.891-11.366 22.006-17.448-0.63828 7.8854-2.9534 17.162-11.541 19.748-6.1683 4.303-16.655 6.5415-20.215 12.041 5.0214-1.1847 9.8531-3.7144 15.084-4.5249 3.5767-0.31772 12.876-4.2274 12.497-3.6455-8.409 3.415-17.387 5.104-25.993 7.9677-1.388 0.29295-2.6137 0.99796-3.8831 0.07159zm31.36-33.899c4.1054-3.8627-3.1982 3.6623 0 0zm7.2253-1.1467c0.33537-1.1747 0.0882 1.44 0 0z" opacity=".20286" stroke-width=".32"/>
</svg>
