<?xml version="1.0" encoding="UTF-8"?>
<svg width="163.84" height="163.84" version="1.1" viewBox="0 0 163.84 163.84" xmlns="http://www.w3.org/2000/svg">
 <defs>
  <linearGradient id="linearGradient2993" x1="-14.558" x2="-13.729" y1="217.07" y2="216.4" gradientUnits="userSpaceOnUse">
   <stop stop-color="#4ff711" offset="0"/>
   <stop stop-color="#30ab04" offset="1"/>
  </linearGradient>
 </defs>
 <g transform="translate(1.8899 9.3453)">
  <ellipse transform="matrix(.70391 -.71029 .69146 .72242 0 0)" cx="-8.0144" cy="98.206" rx="7.7603" ry="10.426" fill="#fff" fill-opacity=".98782"/>
  <ellipse transform="rotate(-30.701)" cx="9.5384" cy="98.211" rx="3.8124" ry="6.5982" fill="#c29fa0" fill-opacity=".99732" stroke="#1112b2" stroke-linecap="square" stroke-linejoin="round" stroke-width="4.8"/>
  <path d="m53.428 88.52c-1.3515-0.10587-3.153-0.59248-3.1957-2.2479-0.33567-2.063-0.40078-4.1784-0.24566-6.2598 0.40188-2.9297 1.2894-5.7935 2.4912-8.4917 0.99112-2.1105 2.4016-4.1165 4.419-5.3542 1.4268-0.42749 2.9607-0.28404 4.4167-0.11803 1.91 0.44911 3.6155 1.5083 5.2266 2.5884 2.3802 1.8327 4.4352 4.1333 5.9159 6.7499 0.8498 1.662 1.2743 3.5704 1.0714 5.4306 0.37015 0.98977 1.2244 2.4063-0.36701 2.7723-1.2503 0.92195-2.8244 1.0998-4.1344 1.8773-2.2359 1.3105-4.3844 3.1299-7.0957 3.2422-2.828 0.27384-5.6843 0.12644-8.5021-0.18914zm9.8118-3.3311c4.8962-1.1606 8.1108-1.4011 7.0597-5.6-0.13615-2.5828-1.3427-5.0756-3.3529-6.7164-1.2249-1.0093-2.5884-1.8611-3.6374-3.0688-1.2603-0.92935-2.736-1.5557-4.2051-2.0762-1.438-0.61749-3.1494 0.38164-3.2556 1.9532-0.20496 1.044 1.3708 2.001 0.02277 2.7735-1.1894 0.49975-2.7688 1.5725-2.0049 3.064 0.67497 0.86434 1.9419 0.11424 2.8503 0.60679 2.9526 0.85753 5.163 3.9536 4.7625 7.0476-0.01675 0.89081-0.29273 1.8209-0.1124 2.6884 0.5471 0.64944 1.5349-0.18338 1.873-0.67204z" stroke="#000" stroke-width=".12"/>
  <ellipse transform="matrix(.84315 -.53767 .56163 .82739 0 0)" cx="1.4468" cy="99.06" rx="5.116" ry="6.142" fill="#000096" fill-opacity=".7199" opacity=".6996"/>
  <ellipse cx="53.694" cy="84.994" rx="1.1789" ry="1.4863" fill-opacity=".98782"/>
 </g>
 <path d="m54.83 140.89c-1.0388-4.3418-7.8492-1.9668-11.216-1.5484-8.0192 1.9457-15.005 6.9441-19.95 13.492-1.3353 3.137-4.6161 5.123-6.2067 0.95035-6.6501-10.101-9.2684-22.58-8.2443-34.564 0.75355-14.02 3.2463-28.268 9.9764-40.745 1.7387-4.6618 5.6426-7.8208 8.6779-11.568 3.965 0.35379 7.8466 1.5171 10.881 4.265 6.0882 4.1644 8.1587 11.512 10.122 18.2 2.8324 10.222 11.485 17.22 19.992 22.796 2.449 1.8891 4.3306 4.3703 6.3377 6.697-0.12904 2.1993 0.13129 5.7852-3.0166 5.5732-3.0909 2.8316-6.283 5.6397-9.1438 8.6906-1.9158 3.0642-5.0993 5.2964-7.8659 7.6192l-0.344 0.14165z" fill="#d2953a" stroke="#000" stroke-width="4.8009"/>
 <path d="m33.077 91.825c-0.79678-0.52147-0.49788-2.1907 0.64467-3.6002 0.65651-0.80991 2.1847-0.8754 2.7933-0.1197 0.6237 0.77441 0.52132 2.141-0.23617 3.1526-0.54099 0.72244-0.83744 0.87277-1.707 0.86563-0.57876-0.0047-1.2514-0.13898-1.4948-0.29828z" opacity=".64168"/>
 <path d="m25.516 66.457c0.64655-0.88077 0.96008-1.2657 0.98953-1.8406 0.21548-4.2061 1.339-12.55 2.1588-16.031 0.86146-3.6587 1.1873-3.879 6.1433-4.1538l4-0.2218 2.9402-3.1444h6.9509c9.1459 0 9.6539 0.27741 6.2608 3.4188-2.8205 2.6113-4.0672 4.5697-2.3431 3.6807 0.32514-0.16766 1.0232-0.48244 1.5512-0.69951s1.21-0.52187 1.5156-0.67733c0.30562-0.15547 0.83712-0.28267 1.1811-0.28267s0.70462-0.12809 0.80137-0.28464c0.0968-0.15655 0.64526-0.35916 1.2189-0.45023 0.57363-0.09107 1.619-0.32506 2.323-0.51999 4.5704-1.2655 9.8489-2.0931 16.32-2.5589 4.5682-0.32884 6.4306-1.0249 13.76-5.1427 4.9075-2.7572 16.961-11.583 22.532-16.499 0.8073-0.7123 1.9718-1.7017 2.5878-2.1986s2.8307-2.5062 4.9215-4.4649c4.3608-4.0853 4.7256-4.3346 6.3653-4.35 2.2536-0.02117 2.2877 1.7223 0.22219 11.349-0.15106 0.704-0.36123 1.712-0.46705 2.24-0.10581 0.528-0.34144 1.536-0.5236 2.24s-0.48003 1.856-0.66191 2.56c-0.61493 2.3801-0.99436 3.1968-1.9697 4.24-0.5348 0.572-1.0903 1.04-1.2345 1.04-0.52643 0-3.8307 2.3805-3.4708 2.5005 0.40923 0.13641 2.8792-0.7156 4.5742-1.5778 0.30561-0.15547 0.83711-0.28267 1.1811-0.28267s0.71446-0.144 0.82323-0.32 0.41223-0.32 0.67434-0.32c0.26212 0 1.0727-0.288 1.8012-0.64 0.72856-0.352 1.4432-0.64 1.588-0.64s0.94581-0.30476 1.7799-0.67724c0.83408-0.37248 1.9485-0.8594 2.4765-1.082 4.2325-1.7847 5.307-2.2851 12.32-5.7371 5.986-2.9465 10.04-5.071 10.72-5.6181 0.90646-0.72913 2.8333-1.6056 3.5297-1.6056 0.70909 0 0.79027 0.13193 0.79027 1.2843 0 0.70639-0.13249 1.5344-0.29443 1.84-0.16193 0.30561-0.61033 1.4197-0.99643 2.4757-0.6858 1.8757-0.97373 2.5901-2.0312 5.04-0.28488 0.66-0.75093 1.74-1.0357 2.4-1.3211 3.0622-5.4776 11.29-6.4559 12.78-1.1324 1.7242-2.2789 2.4479-5.1864 3.2737-0.792 0.22494-1.69 0.53895-1.9957 0.69779-0.30561 0.15885-0.90911 0.28881-1.3411 0.28881s-0.87446 0.144-0.98323 0.32c-0.1296 0.2097 2.2735 0.32 6.9715 0.32 6.5391 0 7.2158 0.05144 7.6989 0.5852 0.29128 0.32186 0.5296 0.79428 0.5296 1.0498 0 0.4822-8.5519 8.7699-11.36 11.009-2.1623 1.7242-2.8494 2.075-4.0756 2.0807-0.57438 3e-3 -1.2428 0.1306-1.4853 0.28423-0.63732 0.40367-0.1412 0.99087 0.83717 0.99087 0.46111 0 1.2806 0.13425 1.8211 0.29832s1.6307 0.47073 2.4227 0.68146 1.9163 0.59119 2.4985 0.84547c0.91547 0.39986 1.0452 0.59726 0.96 1.4608-0.0872 0.88391-0.35682 1.129-2.35 2.1362-2.4991 1.2629-5.4797 2.6017-7.1885 3.2291-0.616 0.22616-1.2568 0.53212-1.424 0.67991s-0.49816 0.26871-0.73546 0.26871-1.0276 0.288-1.7561 0.64c-0.72856 0.352-1.5568 0.64-1.8406 0.64-0.28374 0-0.68389 0.168-0.88922 0.37334-0.46483 0.46482-3.8483 0.48954-5.0796 0.0371-0.50327-0.18492-1.563-0.51362-2.355-0.73045-0.792-0.21682-1.8-0.50482-2.24-0.64-2.8916-0.88835-3.543-1.0436-3.7038-0.88289-0.0993 0.0993 0.13371 0.87862 0.51786 1.7318 1.226 2.7227 4.2408 8.898 4.5289 9.2766 0.20478 0.26912 0.71815 0.21685 1.9476-0.19829 4.0104-1.3542 4.2931-1.404 5.4128-0.95329 0.58117 0.23392 2.0647 1.0963 3.2967 1.9163 1.232 0.82005 2.3902 1.5492 2.5738 1.6204s2.0669 1.2691 4.1852 2.662c4.1223 2.7107 4.9933 3.728 4.2337 4.9443-0.4309 0.68998-1.2065 0.99182-2.5665 0.99878-1.0558 5e-3 -1.8662 0.30009-1.8662 0.6786 0 0.15717 0.28067 0.28576 0.62372 0.28576 0.34304 0 0.96691 0.468 1.3864 1.04 0.90477 1.2338 3.1731 5.9126 4.3827 9.04 0.13614 0.352 0.40734 1.0381 0.60266 1.5247 0.30075 0.74923 0.2571 0.98275-0.28503 1.5249-0.38821 0.38821-0.92161 0.58627-1.3553 0.50324-4.7809-0.91536-6.2865-1.2528-8.042-1.8024-0.50979-0.15961-1.0498-0.21424-1.2-0.12141-0.15021 0.0928-0.27391 1.1323-0.2749 2.3099-2e-3 2.0456-0.20714 3.2388-1.016 5.9011-0.32226 1.0607-0.48348 1.2-1.3884 1.2-0.56311 0-1.9441-0.45096-3.0688-1.0021-1.1247-0.55118-2.405-1.144-2.845-1.3173-0.44-0.17337-1.05-0.44241-1.3557-0.59787-0.30561-0.15547-0.83711-0.28267-1.1811-0.28267s-0.71446-0.144-0.82323-0.32-0.55123-0.32-0.98323-0.32-1.0634-0.17361-1.4032-0.3858c-0.5088-0.31774-0.7338-0.28077-1.2757 0.2096-0.36185 0.32747-0.6579 0.77262-0.6579 0.98924 0 0.3996-2.4359 5.2534-3.5367 7.047-0.62695 1.0216-1.4677 1.5614-2.922 1.8758-0.52451 0.11339-0.93707 0.46555-1.0601 0.90489-0.21629 0.77227-0.70178 1.977-1.1586 2.8749-0.15547 0.30561-0.28267 0.70857-0.28267 0.89546s-0.288 0.93589-0.64 1.6644c-0.352 0.72856-0.64 1.4432-0.64 1.588s-0.288 0.90981-0.64 1.6999l-1.28 2.873c-0.352 0.79009-0.64 1.5551-0.64 1.7001s-0.33956 0.97455-0.75457 1.8435c-0.73964 1.5486-1.2903 2.7782-2.3198 5.1799-0.28292 0.66-0.84172 1.92-1.2418 2.8-0.40007 0.88-0.98103 2.176-1.291 2.88-0.31001 0.704-0.90321 1.991-1.3182 2.8599-0.41502 0.86894-0.75457 1.6957-0.75457 1.8372s0.48953 0.89866 1.0878 1.6825c0.98239 1.287 2.0167 3.24 3.0269 5.7154 0.56649 1.3882 0.45853 1.8249-0.45107 1.8249-0.64486 0-0.9169-0.25206-1.2951-1.2-0.78694-1.9722-1.7209-3.7399-2.4769-4.688l-0.71194-0.89285-1.1926 0.70362c-2.5131 1.4828-2.7823 0.0747-0.73697-3.8541 2.7238-5.2319 4.7539-9.4472 5.4656-11.349 0.39524-1.056 1.23-3.288 1.8549-4.96s1.5226-3.904 1.9946-4.96 1.2844-3.504 1.8053-5.44c2.0661-7.6798 1.9683-7.1752 1.5005-7.7395-0.663-0.79981-4.4783-3.7827-5.5534-4.3417-1.2448-0.64728-2.5204-2.0216-2.263-2.438 0.30042-0.48609 2.2564 0.29931 4.5554 1.8292 1.0836 0.72107 2.0196 1.4381 2.08 1.5934 0.2221 0.5709 3.7812 3.2423 4.5902 3.4453 0.62325 0.15643 1.0344 0.0223 1.621-0.52875 0.72976-0.68557 2.3786-3.8239 2.3786-4.5273 0-0.46588-1.2489-1.4481-3.0244-2.3784-3.0408-1.5934-4.9756-3.1528-4.9756-4.01 0-0.50034 0.27409-0.58422 1.9091-0.58422 1.05 0 2.382 0.19719 2.96 0.43821 2.0689 0.86274 3.3219 1.2478 5.3709 1.6505 1.983 0.38973 4.5347 1.1892 7.68 2.4061 0.792 0.30643 2.088 0.80325 2.88 1.104s1.69 0.67613 1.9957 0.83406c1.3886 0.7176 1.5243 0.46016 1.5243-2.8911 0-3.1054-0.0202-3.1922-0.88-3.7906-1.6794-1.1686-12.132-3.3966-15.6-3.325-1.5719 0.0324-3.04-0.27199-3.04-0.63032 0-0.21654 0.65102-0.26824 1.84-0.14611 2.8626 0.29403 3.6262 0.2467 4.4208-0.27397 0.59578-0.39036 1.1688-0.42934 2.976-0.20241 1.231 0.15457 2.4121 0.3885 2.6246 0.51985s1.7148 0.26056 3.3385 0.28714c2.1802 0.0357 3.1698 0.19099 3.7848 0.59397 0.45802 0.30011 1.3348 0.54565 1.9484 0.54565s1.9507 0.23197 2.9713 0.51548c1.0206 0.28352 2.571 0.71552 3.4454 0.96 2.4428 0.68306 2.8426 0.61556 2.5789-0.43548-0.12142-0.484-0.85703-2.0115-1.6347-3.3945s-1.4139-2.6301-1.4139-2.7714c0-0.59673-2.9352-1.5678-5.76-1.9056-1.672-0.19994-3.4-0.43546-3.84-0.52338-0.72861-0.1456-5.677-0.53895-11.84-0.94119-1.32-0.0862-2.58-0.22125-2.8-0.30023-0.87335-0.31352-0.32027-1.0059 1.12-1.4021 0.836-0.22996 1.9375-0.5494 2.4478-0.70986 0.51027-0.16047 2.5983-0.29366 4.64-0.29598 3.9425-5e-3 14.209-0.7803 14.75-1.1146 0.59895-0.37017 0.32693-0.7199-1.5181-1.9518-1.012-0.67568-1.984-1.3878-2.16-1.5825-0.6344-0.7017-3.407-2.1455-4.6612-2.4273-1.3719-0.30825-6.5301 0.30656-9.9904 1.1908-1.0184 0.26022-1.9664 0.40217-2.1067 0.31544-0.14033-0.0867-1.1071 0.19256-2.1484 0.62065-2.1128 0.86859-3.7293 1.0439-3.4732 0.3766 0.2966-0.77294 1.9867-1.5031 3.4793-1.5031 1.9244 0 2.0899-0.47462 0.97863-2.8055-2.4563-5.1519-3.0222-6.4633-3.5154-8.1457-0.2952-1.0072-0.78685-2.1592-1.0926-2.56-0.30572-0.40085-0.8005-1.5236-1.0995-2.4949-0.29902-0.97134-0.82872-2.2348-1.1771-2.8077s-0.63347-1.4702-0.63347-1.9939c0-1.2776 1.0587-1.2871 2.3848-0.0214 0.53639 0.51197 1.4792 1.0792 2.0952 1.2604 1.5557 0.4578 3.8752 1.2856 4.64 1.656 0.352 0.17046 1.504 0.59195 2.56 0.93665 3.1964 1.0433 4.7747 1.6495 5.1881 1.9926 0.74123 0.61518 2.8138 0.36993 5.5319-0.65457 10.656-4.0165 9.8259-3.5744 7.68-4.0896-2.0688-0.4967-5.0356-1.0047-8.16-1.3972-1.232-0.15476-3.248-0.50498-4.4799-0.77826-1.2319-0.2733-2.7012-0.4969-3.2649-0.4969-0.56379 0-1.3558-0.12778-1.7601-0.28396-0.40429-0.15618-1.5271-0.45905-2.4951-0.67305-3.2904-0.72742-8.1526-2.3035-10.56-3.4229-3.3698-1.567-3.36-1.561-3.36-2.051 0-0.68322 2.4505-0.89094 7.0658-0.59895 2.2738 0.14385 7.7342 0.47888 12.134 0.74451 4.4 0.26564 8.8919 0.55834 9.9821 0.65045 2.104 0.17779 1.8673 0.26171 6.8179-2.4175 4.3337-2.3453 8.64-5.404 8.64-6.1367 0-0.35176-7.0544-0.07643-10.88 0.42463-1.32 0.17289-3.696 0.48014-5.28 0.68279-1.5891 0.2033-8.9364 0.42581-16.392 0.49643-10.795 0.10225-13.779 0.22222-14.84 0.59665-1.339 0.47244-4.6043 0.63414-5.5417 0.27442-0.2784-0.10683-0.50617-0.46409-0.50617-0.7939 0-0.66983 0.2407-0.74595 4-1.2649 1.408-0.19437 3.3728-0.55895 4.3662-0.81018 0.9934-0.25122 2.3447-0.45677 3.0029-0.45677 0.65818 0 1.7174-0.13355 2.3538-0.29677 1.1588-0.29719 3.5428-0.80892 8.0371-1.7252 1.32-0.2691 3.912-0.72884 5.76-1.0216 5.1811-0.82088 6.4322-1.0407 8.16-1.4336 0.88-0.20014 2.392-0.49306 3.36-0.65094s2.768-0.51674 4-0.79747 3.0984-0.63967 4.1475-0.79763c1.3969-0.21033 2.0582-0.48388 2.4707-1.022 0.72101-0.94056 2.5018-4.632 2.5018-5.186 0-0.23236 0.28926-0.79022 0.64281-1.2397 0.35355-0.44946 0.73583-1.2969 0.84952-1.8832s0.50842-1.4531 0.87719-1.9262c1.4938-1.9166 2.4433-3.7843 2.635-5.1829 0.20038-1.4619 0.19309-1.4768-0.72108-1.4734-0.50792 0.0019-2.1475 0.57634-3.6435 1.2766s-2.9048 1.2747-3.1306 1.2766c-0.22585 0.0019-1.1618 0.38414-2.08 0.84944-2.0574 1.0427-5.4708 2.4795-8.2294 3.4641-1.144 0.40832-3.16 1.1857-4.48 1.7275-4.8806 2.0032-8.8596 3.4891-9.9345 3.71-1.2102 0.24867-4.6171 1.5298-6.3855 2.4011-0.616 0.30352-3.352 1.0828-6.08 1.7317-2.728 0.64892-5.6605 1.3913-6.5168 1.6497-0.85621 0.25844-1.9743 0.46988-2.4847 0.46988-0.51037 0-2.1858 0.64774-3.7233 1.4394-1.8254 0.94-3.2051 1.4396-3.9764 1.44-1.2313 6.4e-4 -1.6498-0.27598-1.2778-0.84449 0.27021-0.41294 3.1304-1.8545 4.2208-2.1273 0.44104-0.11035 1.9657-0.96633 3.3882-1.9022 1.4225-0.93586 3.2216-1.9615 3.9981-2.2793 2.2313-0.91302 4.1861-1.8752 5.5718-2.7425 0.704-0.44063 1.928-1.1253 2.72-1.5215s2.88-1.4933 4.64-2.438c3.0075-1.6142 3.2517-1.8218 4.0589-3.4509 0.47241-0.95333 1.1027-2.6693 1.4006-3.8133s0.82599-2.872 1.1735-3.84c1.0826-3.0161 1.859-5.9027 1.6998-6.32-0.084-0.22-0.31811-0.4-0.52031-0.4-0.35803 0-4.7498 3.7291-6.3926 5.428-0.45109 0.46649-1.3871 1.2694-2.08 1.7842-0.69292 0.51483-2.9878 2.3126-5.0998 3.995-4.8943 3.8989-8.9557 6.7766-11.091 7.8584-0.923 0.46772-2.0452 1.0988-2.4938 1.4023-0.4486 0.30356-1.4636 0.96644-2.2556 1.4731-0.792 0.50662-1.8702 1.2686-2.3959 1.6933-1.4125 1.141-12.056 6.1932-14.154 6.7186-0.66568 0.16671-2.6965 0.39091-4.513 0.4982-8.1745 0.48288-16.168 2.5666-23.953 6.2442-4.2675 2.0159-5.1832 2.5438-7.0522 4.0661-1.4585 1.188-2.6522 1.7583-2.6522 1.2672 0-0.56669 2.9899-5.2109 4.3676-6.7841 0.94182-1.0755 1.7124-2.0801 1.7124-2.2325 0-0.15234 1.0362-1.3202 2.3027-2.5951 1.2665-1.275 2.2297-2.3911 2.1405-2.4803-0.34293-0.34292-6.5425-0.27814-7.1994 0.07524-0.37186 0.20006-0.86316 0.83724-1.0918 1.416-0.22863 0.57873-0.65768 1.3402-0.95347 1.6922-0.56489 0.67227-1.216 1.7968-4.076 7.04-0.96003 1.76-2.0832 3.704-2.496 4.32s-1.1313 2.1531-1.5967 3.4159c-0.46543 1.2627-1.1216 2.545-1.4581 2.8496-0.59548 0.5389-0.61187 0.50639-0.61187-1.2132 0-1.9517 0.5889-3.7065 2.7158-8.0923 0.76816-1.584 1.5414-3.341 1.7184-3.9046 0.17697-0.56351 0.6853-1.5596 1.1296-2.2135 0.93442-1.3751 0.84214-1.722-0.45811-1.722-0.51508 0-1.5874-0.17408-2.3828-0.38684-1.833-0.49025-2.078-0.26479-3.2017 2.9468-1.79 5.1158-2.0453 6.3008-2.4109 11.191-0.34649 4.6338-0.42143 4.9986-1.1695 5.6919m47.332 52.26-0.13444 2.1115c-0.15271 2.3982-0.85929 3.3059-2.5732 3.3059-0.77267 0-1.4834 0.50736-3.5864 2.56-1.4425 1.408-2.7169 2.56-2.8321 2.56-0.49191 0-4.3413 3.335-4.1698 3.6125 0.46739 0.75624 4.1736 1.7468 7.2871 0.14718 1.7803-0.91471 10.096-4.1975 10.096-3.2985 0 0.72046-4.8651 3.7626-6.9883 4.3698-1.2262 0.35065-2.5802 1.0305-3.4154 1.715-1.4405 1.1804-2.7162 1.4875-2.7162 0.65401 0-0.60511-0.76211-0.62402-1.2542-0.0311-0.28604 0.34466-0.27657 0.48894 0.0408 0.62142 0.47148 0.19681 0.44956 0.21484-2.3066 1.8985-1.3334 0.81451-1.76 1.2584-1.76 1.8312 0 0.57424-0.42076 1.0092-1.7494 1.8086-0.96219 0.57887-1.8541 1.3353-1.982 1.681-0.12788 0.3457-0.52664 0.78596-0.88614 0.97836-0.71162 0.38085-3.018 3.6757-3.2834 4.6906-0.4228 1.6168-2.9325 5.0304-5.699 7.7516-3.2218 3.169-4.3947 3.9385-7.1102 4.6648-0.92937 0.24858-2.3199 0.67989-3.09 0.95847-1.4746 0.53339-4.1998 0.69119-4.1998 0.24317 0-0.14482 1.044-0.73747 2.32-1.317 4.9385-2.2429 5.7376-2.6706 7.5893-4.0626 2.0067-1.5084 4.7608-4.5121 6.1224-6.6771 1.0379-1.6503 2.2083-4.1824 2.2083-4.7776 0-0.25553 0.144-0.5536 0.32-0.66237s0.32-0.54077 0.32-0.96 0.12809-0.84139 0.28464-0.93815c0.15655-0.0968 0.37676-0.71725 0.48934-1.3789 0.11258-0.66164 0.2866-1.6569 0.3867-2.2116 0.13731-0.7609 0.0171-1.1736-0.48933-1.68" stroke="#000002" stroke-width=".32"/>
 <g stroke="#000">
  <path d="m28.59 64.449c0.90126-5.7895 2.0477-11.553 4.0044-17.233l5.0124 0.49456c-2.4508 5.4538-4.6631 10.914-5.598 16.408 1.8706-1.5782 2.1142-3.2612 3.1012-4.2331l8.6541-15.459 8.0868-0.80372-11.011 13.542 0.20316 1.3818 2.4554-1.5856c6.5589-5.5325 12.613-6.2192 18.853-8.6844l14.935-1.8182 11.885-5.3361 22.525-14.27 13.571-11.237-1.4743 7.9573-3.516 7.9473c-9.5164 4.8375-17.653 10.574-28.332 14.559l0.2348 0.77945 1.7798 1.0135 4.8863-2.0237 4.0614-1.5562 21.956-6.2663 29.307-11.912 0.9838-0.39672-0.14664 3.0613-3.7216 6.7565-3.7926 7.4836-48.978 8.8903-0.85043 1.8833 5.094 0.4717 4.4773-1.2214 44.214-1.7687-13.22 9.1881-30.697-2.0133-0.46987 0.48552 0.27573 1.0405s9.2781 3.384 9.5346 3.4426c0.25654 0.0586 25.097 5.015 25.097 5.015l-10.264 4.2692-3.1094 0.29911-1.2314-0.60518-13.062-4.9431-1.9418-1.331-1.0423-0.20166-0.52918 1.2382 1.0825 2.8366 7.1679 16.844-0.64241 0.62483-3.4644 0.8485-1.0017 1.0643 0.6347 0.60809s4.483-1.6584 4.6295-1.5705c0.14649 0.0879 11.628-1.4886 11.628-1.4886l2.9415 0.80643 4.3568 3.146 1.8815 1.3318 0.0303 0.43296-15.343 1.1204-3.2837 0.14917-2.2728 0.46806-1.2408 0.45628-0.85396 0.57199-0.68615 0.60087 4.6101 0.87752 11.246 0.87195 7.4852 1.2216 1.3902 0.79348 3.4924 6.9103-0.55502 0.21955-5.2759-1.2436-4.2642-0.96188-8.8342-1.2968-4.4944-0.57058-1.312 0.90838-5.3744-0.25351-0.49062 0.33365s2.0648 0.96264 2.2402 0.96264 4.6211-4e-3 4.6211-4e-3l12.62 3.1592 0.21191 6.6152-0.8231-0.0712-21.706-6.9521-1.0914 0.40018-0.51086 0.24963 0.37934 2.0372 7.1487 4.4811c-0.0202 1.7421-0.85344 3.4791-3.0314 5.2076 0 0-2.335-0.91955-2.335-1.2711 0-0.35158-2.6968-3.0953-2.6968-3.0953l-6.6563-2.6104 0.86196 1.5814 5.0544 3.472s1.7052 2.0491 1.8865 2.1015c1.5769 0.45603-12.534 37.459-14.185 37.204l0.81961 2.0958 2.8016-1.8986 3.8098 6.4058-69.484 0.0441 9.0778-2.0541 4.0685-3.2916 6.6272-8.3319 0.02697-1.7984 5.256-5.0217 2.6707-2.8128 3.2508-2.9502 0.84101-1.1083s4.6265-2.7987 5.407-2.4456l6.6158-1.9586 1.8796-1.5863-0.15566-1.2702-1.7555 0.48954c-3.135 1.8172-8.499 3.9077-12.468 4.2068l7.5575-7.1615 4.113-2.2993 1.1835-6.4774-7.1501-7.4744c-5.974-3.5419-10.131-8.1045-14.879-12.335 0 0 4.5497 0.3227 4.8832 0.34674 0.33354 0.02405 5.5876-0.77013 5.5876-0.77013 2.4777-1.53 4.94-3.0717 7.9227-4.2156l1.3107-1.7736-0.24655-1.9971s0.0053-1.7004 0.17191-1.7844c0.16657-0.08404-1.3566-3.8719-1.3566-3.8719l-2.3625-3.3068s0.41024 0.18392-5.9253-3.7203c-5.2228-3.2185-5.3923-2.4508-7.2788-1.6485 0 0-0.14493 0.04622-0.29979 0.24343-1.0893 1.3871-4.6675 4.0258-4.428 5.0287 0.1642 0.68779-2.3499 9.1847-2.3499 9.1847l-2.5707-8.6234-2.9133-5.8225-3.2111-3.8097-9.8583-6.5404-2.1172-0.33482z" fill="url(#linearGradient2993)" stroke-width="1px"/>
 </g>
 <path d="m102.95 163.93c-0.39085-1.605 1.0416 1.2189 0 0zm-6.6763-4.8448c3.7573-5.5321 4.7925-12.59 6.6382-18.967 1.5485-7.7333 3.8123-15.84 1.9602-23.699-2.2537-2.3072-5.176-6.1212 0.55864-3.8019 3.5179 1.5342 10.264 7.1926 11.011 1.5924-1.9227-2.4227-10.111-3.6169-6.0113-7.2977 6.1869 0.0384 12.325 3.1733 18.579 4.1449 5.3597 2.4253 4.7902-4.7105 2.1131-4.2074 5.3695 0.7234 3.5536 11.578-2.032 5.995-6.1055-1.4167-13.991-6.2414-19.443-3.9628 1.9554 3.2214 10.999 4.1366 6.9394 8.9307-4.1958 6.0969-8.9956-6.2409-13.971-4.4901 4.14 3.9348 10.764 7.141 6.3719 13.83-3.1918 10.004-7.1584 19.766-12.105 29.036-2.084 4.9022 6.975 0.0435 0.69149 3.0144l-0.69357 0.0583-0.60778-0.17422zm46.049-52.432c-6.4611-2.164-13.144-3.0005-19.872-3.6826-2.5015 0.78522-12.657 0.52655-4.6612 1.5286 3.8449 0.511 8.7519 0.63535 11.834 2.151-5.1072-1.4794-11.647-0.99587-16.024-2.7433 2.5085-4.5395 11.116-2.9841 16.186-2.5304 3.3876 0.83677 15.135 3.4229 8.9945-2.4341-8.1779-1.7275 4.8055-0.77565 4.2411 4.1141 0.68605 1.6929 3.3645 5.0444-0.69848 3.5966zm-9.9956-8.8513c3.4235-0.13708 0.93243 0.31891 0 0zm-8.7244-0.58255c-3.4098-0.57211-11.336-0.49143-12.485-1.032 7.4174-3.0429 15.24-5.4911 23.296-5.8408 2.5518-1.1072-1.084-3.4294 2.9203-0.51365 8.0879 4.5353-6.1347 3.3495-9.445 3.9177-2.9142 0.39141-11.047-0.39433-10.64 2.5438 3.4456 0.5953 13.123 0.53879 12.968 1.3193-2.2044-0.13893-4.4095-0.26663-6.6144-0.39441zm18.966-1.6496c2.7328-0.27556-0.45477 0.52438 0 0zm-40.466-3.4648c2.6578-11.021 0.67448-23.837-7.8887-31.864-7.1928-7.0213-17.587-10.434-27.551-9.6037-7.4604-0.37823 5.9246-2.0652 8.9469-2.0066 6.3565-0.39285 12.741 0.07123 19.004 0.94988 19.701-1.7962 38.57-8.5102 56.426-16.729 4.5098-1.7128 5.25-9.8051-0.73655-5.054-8.814 3.5187-17.511 7.4802-26.566 10.315 9.8121-3.7704 19.543-7.7739 29.228-11.822 6.3287-0.02022-3.3855 8.9827-3.1734 12.84-2.7096 7.0911-12.115 4.7907-18.04 7.1495-10.829 1.8181-21.584 3.9752-32.406 5.8161-2.1663 3.9363 9.1723-0.15251 12.204 0.82085 3.8053 0.11639 14.606-0.17838 14.477 0.26037-5.1521 0.88846-16.229-0.56026-18.13 0.91984 12.85 1.3784 25.995 2.1888 38.87 0.42825 2.683-1.7799 6.8854-5.6189 2.7585-1.2382-5.4176 3.5385-10.976 7.8335-17.758 6.093-8.1605-0.29877-16.33-1.4792-24.492-1.0415 2.6966 4.7475 13.633 5.8486 19.85 7.383 3.4001 1.5308 14.705 0.90621 13.868 3.5094-5.7138 2.4656-12.114 5.5537-17.932 1.5364-4.183-0.19983-9.3146-5.472-12.193-3.9925 2.3531 5.8987 4.8154 11.979 7.4344 17.853 3.3653 4.0245-4.8064 2.9607-4.4645 5.6341-4.1393-1.0488-7.764 2.0013-11.732 1.8415zm14.78-2.8849c3.8479-1.0471 4.9149-0.88194 0.58302 0.17261-1.3437 0.59103-3.7414 0.85816-0.58302-0.17261zm4.8-1.1085c4.7948-0.91869-2.4394 0.97903 0 0zm2.16-0.53193c1.9913-0.3174 0.0248 0.55362 0 0zm2.0861-0.32984c2.7328-0.27556-0.45477 0.52438 0 0zm6.1539-0.09823c-2.494-0.98024 4.2782 0.89698 0 0zm-4.0763-0.22632c3.6628-0.12133-0.34412 0.40212 0 0zm-97.041-17.69c0.17181-0.80082 1.396 1.2163 0 0zm43.678-22.891c3.3709 0.9927 11.696-3.8236 11.013-2.9767-3.2655 1.5813-6.4208 3.726-10.213 3.2859-3.5043 0.27653-6.6089-0.03431-0.8-0.30911zm65.107 17.746c-0.3909-1.605 1.0416 1.2188 0 0zm11.373-8.0788c2.5135-2.6741 2.5751-2.0747 0 0zm-18.88-3.4446c2.6492-0.31227 14.568-1.3217 6.0849-0.22005-0.89297 0.19265-11.135 0.88293-6.0849 0.22005zm11.12-1.1668c4.5254-0.1442 0.99488 0.35893 0 0zm4.0044-0.31812c3.4235-0.13709 0.93246 0.31892 0 0zm8.8348-2.2504c-1.1046-1.5722 1.9652 1.9112 0 0zm-65.079-1.7014c-3.6582-0.55269-6.9116-0.6411-1.76-2.5226 7.0284-3.6588 13.897-7.6399 20.48-12.016 6.0853-3.5013 13.207-7.7432 15.207-14.965-1.2899-3.1455-6.9006 5.6492-10.072 6.7998-8.0482 7.0136-17.366 12.373-26.541 17.743-2.0027 0.61876 6.2979-3.4173 7.9843-5.1863 10.584-5.7331 19.667-13.744 28.752-21.511-0.73528 5.3148-1.7305 14.766-7.7239 17.667-6.732 3.8006-13.797 6.9704-20.411 10.96-3.6389 0.0277-6.159 4.8087-1.2108 2.6776 8.025-3.9297 17.316-4.1419 25.369-8.1076 3.831-0.99359-5.6214 2.6367-7.571 3.0943-7.2402 1.4643-14.213 4.4482-21.259 5.9082l-1.2448-0.54016zm31.36-33.899c4.5084-4.1639-3.664 4.0381 0 0zm7.2253-1.1467c0.29577-1.1976 0.13653 1.3905 0 0z" opacity=".20286" stroke-width=".32"/>
</svg>
