<?xml version="1.0" encoding="UTF-8"?>
<svg width="48px" height="48px" version="1.1" xmlns="http://www.w3.org/2000/svg" xmlns:xlink="http://www.w3.org/1999/xlink">
 <defs>
  <linearGradient id="linearGradient4975" x1="34.893" x2="45.919" y1="36.423" y2="48.548" gradientTransform="translate(-18.018 -13.571)" gradientUnits="userSpaceOnUse">
   <stop stop-color="#729fcf" offset="0"/>
   <stop stop-color="#5187d6" offset="1"/>
  </linearGradient>
  <linearGradient id="linearGradient7922" x1="16.875" x2="27.901" y1="22.852" y2="34.977" gradientUnits="userSpaceOnUse">
   <stop stop-color="#fff" offset="0"/>
   <stop stop-color="#fff" stop-opacity=".34021" offset="1"/>
  </linearGradient>
  <radialGradient id="radialGradient2097" cx="23.071" cy="35.127" r="10.319" gradientTransform="matrix(.91481 .01265 -.008215 .21356 2.2539 27.189)" gradientUnits="userSpaceOnUse">
   <stop offset="0"/>
   <stop stop-opacity="0" offset="1"/>
  </radialGradient>
 </defs>
 <g>
  <path transform="matrix(1.5505 0 0 1.9787 -12.481 -32.491)" d="m33.278 34.941a10.319 2.3202 0 1 1-20.639 0 10.319 2.3202 0 1 1 20.639 0z" fill="url(#radialGradient2097)" opacity=".10825"/>
  <path d="m27.514 37.543v-9.027c3.3262-0.01339 6.6523-0.02679 9.9785-0.04018v-6.9953h-9.9695c-3e-3 -3.3201-0.0059-6.6401-0.0089-9.9602-2.3388 0.0037-4.6775 0.0074-7.0163 0.01116 0.0015 3.3104 3e-3 6.6208 0.0045 9.9312-3.3299 0.02455-6.6598 0.04911-9.9896 0.07366-0.0119 2.3228-0.02381 4.6457-0.03571 6.9685 3.3448-0.0097 6.6895-0.01935 10.034-0.02902 0.0022 3.0135 0.0045 6.0269 0.0067 9.0404 2.332 0.0089 4.6641 0.01786 6.9961 0.02679z" fill="#75a1d0" stroke="#3465a4" stroke-width="1px"/>
  <path d="m26.499 36.534v-9.0342h10.003c-0.0022-1.6748-0.0045-3.3496-0.0067-5.0244h-9.987v-9.995c-1.6649 6e-3 -3.3299 0.01191-4.9948 0.01786 3e-3 3.3257 0.0059 6.6514 0.0089 9.9771-3.3421 6e-3 -6.6841 0.01191-10.026 0.01786-0.0089 1.6577-0.01786 3.3154-0.02679 4.9731 3.3548 3e-3 6.7096 0.0059 10.064 0.0089-0.0045 3.0092-0.0089 6.0183-0.01339 9.0275 1.6597 0.01042 3.3193 0.02085 4.979 0.03127z" fill="url(#linearGradient4975)" opacity=".4086" stroke="url(#linearGradient7922)" stroke-width="1px"/>
  <path d="m11 25c1.0239 0.93123 2.7392 0.53487 4.0601 0.68066 7.0311 0.01396 14.033-0.83645 21.06-0.89295 1.0664 0.46559 0.87624-0.2386 0.86455-1.0513v-1.7676c-3.3281 0.010417-6.6562 0.020833-9.9844 0.03125v-9.9652h-6v9.9652h-10v3z" fill="#fff" fill-rule="evenodd" opacity=".31183"/>
 </g>
</svg>
